<svg xmlns="http://www.w3.org/2000/svg" xmlns:xlink="http://www.w3.org/1999/xlink" width="150" zoomAndPan="magnify" viewBox="0 0 112.5 112.499997" height="150" preserveAspectRatio="xMidYMid meet" version="1.0"><defs><clipPath id="eb0e100c85"><path d="M 59.5 17.0625 L 84.4375 17.0625 L 84.4375 50.75 L 59.5 50.75 Z M 59.5 17.0625 " clip-rule="nonzero"/></clipPath><clipPath id="218b7da521"><path d="M 71.253906 21.3125 C 72.878906 17.359375 77.71875 15.832031 81.238281 18.214844 C 81.28125 18.238281 81.351562 18.28125 81.394531 18.328125 C 84.914062 20.707031 85.363281 25.785156 82.351562 28.816406 L 60.84375 50.464844 C 60.464844 50.152344 60.042969 49.882812 59.621094 49.636719 Z M 71.253906 21.3125 " clip-rule="nonzero"/></clipPath><clipPath id="d0bbfe4371"><path d="M 0.5 0.0625 L 25.4375 0.0625 L 25.4375 33.65625 L 0.5 33.65625 Z M 0.5 0.0625 " clip-rule="nonzero"/></clipPath><clipPath id="b3545fdce8"><path d="M 12.253906 4.3125 C 13.878906 0.359375 18.71875 -1.167969 22.238281 1.214844 C 22.28125 1.238281 22.351562 1.28125 22.394531 1.328125 C 25.914062 3.707031 26.363281 8.785156 23.351562 11.816406 L 1.84375 33.464844 C 1.464844 33.152344 1.042969 32.882812 0.621094 32.636719 Z M 12.253906 4.3125 " clip-rule="nonzero"/></clipPath><clipPath id="6ba2992979"><rect x="0" width="26" y="0" height="34"/></clipPath><clipPath id="6c0b34fe52"><path d="M 56.4375 11 L 70.4375 11 L 70.4375 49.4375 L 56.4375 49.4375 Z M 56.4375 11 " clip-rule="nonzero"/></clipPath><clipPath id="226572ba14"><path d="M 58.214844 49.050781 C 57.746094 48.917969 57.257812 48.804688 56.765625 48.757812 L 56.765625 18.078125 C 56.765625 13.789062 60.644531 10.535156 64.8125 11.363281 C 64.878906 11.386719 64.945312 11.386719 65.011719 11.410156 C 69.179688 12.261719 71.5 16.777344 69.871094 20.730469 Z M 58.214844 49.050781 " clip-rule="nonzero"/></clipPath><clipPath id="d100526c62"><path d="M 0.628906 0 L 14.4375 0 L 14.4375 38.222656 L 0.628906 38.222656 Z M 0.628906 0 " clip-rule="nonzero"/></clipPath><clipPath id="9508a2f411"><path d="M 2.214844 38.050781 C 1.746094 37.917969 1.257812 37.804688 0.765625 37.757812 L 0.765625 7.078125 C 0.765625 2.789062 4.644531 -0.464844 8.8125 0.363281 C 8.878906 0.386719 8.945312 0.386719 9.011719 0.410156 C 13.179688 1.261719 15.5 5.777344 13.871094 9.730469 Z M 2.214844 38.050781 " clip-rule="nonzero"/></clipPath><clipPath id="bb6cb26992"><rect x="0" width="15" y="0" height="39"/></clipPath><clipPath id="a6163bf24b"><path d="M 61.6875 27.5625 L 95.375 27.5625 L 95.375 52.9375 L 61.6875 52.9375 Z M 61.6875 27.5625 " clip-rule="nonzero"/></clipPath><clipPath id="4007a438a9"><path d="M 83.421875 29.871094 C 86.429688 26.839844 91.445312 27.289062 93.832031 30.835938 C 93.851562 30.882812 93.898438 30.949219 93.921875 30.992188 C 96.28125 34.566406 94.765625 39.414062 90.84375 41.078125 L 62.738281 52.800781 C 62.496094 52.351562 62.226562 51.949219 61.914062 51.566406 Z M 83.421875 29.871094 " clip-rule="nonzero"/></clipPath><clipPath id="9f4cdaac70"><path d="M 0.886719 0.5625 L 34.375 0.5625 L 34.375 25.804688 L 0.886719 25.804688 Z M 0.886719 0.5625 " clip-rule="nonzero"/></clipPath><clipPath id="e712c1ec52"><path d="M 22.421875 2.871094 C 25.429688 -0.160156 30.445312 0.289062 32.832031 3.835938 C 32.851562 3.882812 32.898438 3.949219 32.921875 3.992188 C 35.28125 7.566406 33.765625 12.414062 29.84375 14.078125 L 1.738281 25.800781 C 1.496094 25.351562 1.226562 24.949219 0.914062 24.566406 Z M 22.421875 2.871094 " clip-rule="nonzero"/></clipPath><clipPath id="0ccc0571d8"><rect x="0" width="35" y="0" height="26"/></clipPath><clipPath id="88268f2d40"><path d="M 27.5625 17 L 52.5 17 L 52.5 50.75 L 27.5625 50.75 Z M 27.5625 17 " clip-rule="nonzero"/></clipPath><clipPath id="2a75d03a51"><path d="M 29.644531 28.792969 C 26.632812 25.761719 27.078125 20.707031 30.601562 18.304688 C 30.644531 18.28125 30.710938 18.238281 30.757812 18.191406 C 34.300781 15.8125 39.113281 17.339844 40.742188 21.292969 L 52.398438 49.636719 C 51.953125 49.882812 51.550781 50.152344 51.171875 50.464844 Z M 29.644531 28.792969 " clip-rule="nonzero"/></clipPath><clipPath id="bfdb4edf6f"><path d="M 0.5625 0 L 25.5 0 L 25.5 33.65625 L 0.5625 33.65625 Z M 0.5625 0 " clip-rule="nonzero"/></clipPath><clipPath id="40e09dfabb"><path d="M 2.644531 11.792969 C -0.367188 8.761719 0.078125 3.707031 3.601562 1.304688 C 3.644531 1.28125 3.710938 1.238281 3.757812 1.191406 C 7.300781 -1.1875 12.113281 0.339844 13.742188 4.292969 L 25.398438 32.636719 C 24.953125 32.882812 24.550781 33.152344 24.171875 33.464844 Z M 2.644531 11.792969 " clip-rule="nonzero"/></clipPath><clipPath id="2fba5c06a3"><rect x="0" width="26" y="0" height="34"/></clipPath><clipPath id="37cce4b17c"><path d="M 16.625 27.5625 L 50.3125 27.5625 L 50.3125 52.9375 L 16.625 52.9375 Z M 16.625 27.5625 " clip-rule="nonzero"/></clipPath><clipPath id="22c2764c98"><path d="M 50.082031 51.542969 C 49.769531 51.925781 49.5 52.351562 49.253906 52.777344 L 21.152344 41.054688 C 17.226562 39.414062 15.710938 34.542969 18.074219 30.972656 C 18.097656 30.925781 18.140625 30.859375 18.1875 30.8125 C 20.570312 27.265625 25.585938 26.816406 28.59375 29.847656 Z M 50.082031 51.542969 " clip-rule="nonzero"/></clipPath><clipPath id="ba967dc50b"><path d="M 0.625 0.5625 L 34.175781 0.5625 L 34.175781 25.804688 L 0.625 25.804688 Z M 0.625 0.5625 " clip-rule="nonzero"/></clipPath><clipPath id="52947da47e"><path d="M 34.082031 24.542969 C 33.769531 24.925781 33.5 25.351562 33.253906 25.777344 L 5.152344 14.054688 C 1.226562 12.414062 -0.289062 7.542969 2.074219 3.972656 C 2.097656 3.925781 2.140625 3.859375 2.1875 3.8125 C 4.570312 0.265625 9.585938 -0.183594 12.59375 2.847656 Z M 34.082031 24.542969 " clip-rule="nonzero"/></clipPath><clipPath id="641e6190c2"><rect x="0" width="35" y="0" height="26"/></clipPath><clipPath id="3f375619ed"><path d="M 41.5625 11 L 55.5625 11 L 55.5625 49.4375 L 41.5625 49.4375 Z M 41.5625 11 " clip-rule="nonzero"/></clipPath><clipPath id="a9c1d7697e"><path d="M 42.144531 20.707031 C 40.519531 16.753906 42.835938 12.242188 47.003906 11.386719 C 47.070312 11.363281 47.136719 11.363281 47.183594 11.34375 C 51.351562 10.511719 55.230469 13.765625 55.230469 18.078125 L 55.230469 48.757812 C 54.714844 48.804688 54.25 48.917969 53.78125 49.050781 Z M 42.144531 20.707031 " clip-rule="nonzero"/></clipPath><clipPath id="cfcbbd4a1a"><path d="M 0.5625 0 L 14.433594 0 L 14.433594 38.222656 L 0.5625 38.222656 Z M 0.5625 0 " clip-rule="nonzero"/></clipPath><clipPath id="de1f6e6232"><path d="M 1.144531 9.707031 C -0.480469 5.753906 1.835938 1.242188 6.003906 0.386719 C 6.070312 0.363281 6.136719 0.363281 6.183594 0.34375 C 10.351562 -0.488281 14.230469 2.765625 14.230469 7.078125 L 14.230469 37.757812 C 13.714844 37.804688 13.25 37.917969 12.78125 38.050781 Z M 1.144531 9.707031 " clip-rule="nonzero"/></clipPath><clipPath id="064f4e0576"><rect x="0" width="15" y="0" height="39"/></clipPath><clipPath id="9c0f1b2672"><path d="M 11 41.5625 L 49 41.5625 L 49 56 L 11 56 Z M 11 41.5625 " clip-rule="nonzero"/></clipPath><clipPath id="1e99f9efef"><path d="M 11.277344 47.546875 C 11.300781 47.480469 11.300781 47.410156 11.320312 47.367188 C 12.167969 43.167969 16.648438 40.832031 20.570312 42.46875 L 48.699219 54.214844 C 48.566406 54.6875 48.453125 55.183594 48.410156 55.675781 L 17.941406 55.675781 C 13.683594 55.675781 10.453125 51.769531 11.277344 47.570312 " clip-rule="nonzero"/></clipPath><clipPath id="286fe9b42c"><path d="M 0 0.5625 L 37.742188 0.5625 L 37.742188 14.910156 L 0 14.910156 Z M 0 0.5625 " clip-rule="nonzero"/></clipPath><clipPath id="ef84500ed8"><path d="M 0.277344 6.546875 C 0.300781 6.480469 0.300781 6.410156 0.320312 6.367188 C 1.167969 2.167969 5.648438 -0.167969 9.570312 1.46875 L 37.699219 13.214844 C 37.566406 13.6875 37.453125 14.183594 37.410156 14.675781 L 6.941406 14.675781 C 2.683594 14.675781 -0.546875 10.769531 0.277344 6.570312 " clip-rule="nonzero"/></clipPath><clipPath id="92ff20955c"><rect x="0" width="38" y="0" height="15"/></clipPath><clipPath id="edc93da2be"><path d="M 11 57 L 49 57 L 49 71 L 11 71 Z M 11 57 " clip-rule="nonzero"/></clipPath><clipPath id="f75311c3ad"><path d="M 11.300781 65.511719 C 11.277344 65.445312 11.277344 65.378906 11.253906 65.335938 C 10.429688 61.132812 13.664062 57.226562 17.917969 57.226562 L 48.386719 57.226562 C 48.429688 57.71875 48.542969 58.214844 48.675781 58.6875 L 20.550781 70.410156 C 16.625 72.050781 12.148438 69.714844 11.300781 65.511719 " clip-rule="nonzero"/></clipPath><clipPath id="dec956bbe6"><path d="M 0 0.105469 L 37.742188 0.105469 L 37.742188 14 L 0 14 Z M 0 0.105469 " clip-rule="nonzero"/></clipPath><clipPath id="8b3577b567"><path d="M 0.300781 8.511719 C 0.277344 8.445312 0.277344 8.378906 0.253906 8.335938 C -0.570312 4.132812 2.664062 0.226562 6.917969 0.226562 L 37.386719 0.226562 C 37.429688 0.71875 37.542969 1.214844 37.675781 1.6875 L 9.550781 13.410156 C 5.625 15.050781 1.148438 12.714844 0.300781 8.511719 " clip-rule="nonzero"/></clipPath><clipPath id="61d6421c02"><rect x="0" width="38" y="0" height="14"/></clipPath><clipPath id="df9fc75301"><path d="M 16.625 60 L 50.3125 60 L 50.3125 85 L 16.625 85 Z M 16.625 60 " clip-rule="nonzero"/></clipPath><clipPath id="c5326bd133"><path d="M 18.164062 82.042969 C 18.140625 82 18.097656 81.929688 18.054688 81.886719 C 15.691406 78.316406 17.207031 73.464844 21.128906 71.800781 L 49.253906 60.078125 C 49.5 60.527344 49.769531 60.933594 50.082031 61.3125 L 28.574219 82.988281 C 25.5625 86.019531 20.550781 85.570312 18.164062 82.019531 " clip-rule="nonzero"/></clipPath><clipPath id="a3a4abeff9"><path d="M 0.625 0 L 34.175781 0 L 34.175781 25 L 0.625 25 Z M 0.625 0 " clip-rule="nonzero"/></clipPath><clipPath id="9eac64add9"><path d="M 2.164062 22.042969 C 2.140625 22 2.097656 21.929688 2.054688 21.886719 C -0.308594 18.316406 1.207031 13.464844 5.128906 11.800781 L 33.253906 0.078125 C 33.5 0.527344 33.769531 0.933594 34.082031 1.3125 L 12.574219 22.988281 C 9.5625 26.019531 4.550781 25.570312 2.164062 22.019531 " clip-rule="nonzero"/></clipPath><clipPath id="2f51b04937"><rect x="0" width="35" y="0" height="25"/></clipPath><clipPath id="3fb87f3291"><path d="M 27.5625 62.125 L 52.5 62.125 L 52.5 95.8125 L 27.5625 95.8125 Z M 27.5625 62.125 " clip-rule="nonzero"/></clipPath><clipPath id="c6a6a2a60f"><path d="M 30.757812 94.664062 C 30.710938 94.644531 30.644531 94.597656 30.601562 94.554688 C 27.078125 92.171875 26.65625 87.097656 29.644531 84.066406 L 51.148438 62.390625 C 51.527344 62.707031 51.953125 62.976562 52.375 63.222656 L 40.742188 91.542969 C 39.113281 95.519531 34.277344 97.023438 30.757812 94.644531 " clip-rule="nonzero"/></clipPath><clipPath id="07556d7df2"><path d="M 0.5625 0.363281 L 25.5 0.363281 L 25.5 33.8125 L 0.5625 33.8125 Z M 0.5625 0.363281 " clip-rule="nonzero"/></clipPath><clipPath id="f6ecc060f9"><path d="M 3.757812 32.664062 C 3.710938 32.644531 3.644531 32.597656 3.601562 32.554688 C 0.078125 30.171875 -0.34375 25.097656 2.644531 22.066406 L 24.148438 0.390625 C 24.527344 0.707031 24.953125 0.976562 25.375 1.222656 L 13.742188 29.542969 C 12.113281 33.519531 7.277344 35.023438 3.757812 32.644531 " clip-rule="nonzero"/></clipPath><clipPath id="5d7095b6cb"><rect x="0" width="26" y="0" height="34"/></clipPath><clipPath id="47eef56df1"><path d="M 41.5625 63.4375 L 55.5625 63.4375 L 55.5625 101.941406 L 41.5625 101.941406 Z M 41.5625 63.4375 " clip-rule="nonzero"/></clipPath><clipPath id="f51477b7c4"><path d="M 55.25 94.777344 C 55.25 99.066406 51.371094 102.324219 47.207031 101.515625 C 47.136719 101.492188 47.070312 101.492188 47.027344 101.472656 C 42.859375 100.617188 40.542969 96.101562 42.167969 92.148438 L 53.824219 63.808594 C 54.292969 63.941406 54.78125 64.054688 55.273438 64.097656 Z M 55.25 94.777344 " clip-rule="nonzero"/></clipPath><clipPath id="d10fcad7ef"><path d="M 0.5625 0.796875 L 14.433594 0.796875 L 14.433594 38.941406 L 0.5625 38.941406 Z M 0.5625 0.796875 " clip-rule="nonzero"/></clipPath><clipPath id="ca96687e27"><path d="M 14.25 31.777344 C 14.25 36.066406 10.371094 39.324219 6.207031 38.515625 C 6.136719 38.492188 6.070312 38.492188 6.027344 38.472656 C 1.859375 37.617188 -0.457031 33.101562 1.167969 29.148438 L 12.824219 0.808594 C 13.292969 0.941406 13.78125 1.054688 14.273438 1.097656 Z M 14.25 31.777344 " clip-rule="nonzero"/></clipPath><clipPath id="544ed4dd1b"><rect x="0" width="15" y="0" height="39"/></clipPath><clipPath id="10a4698d39"><path d="M 49.4375 50 L 62.125 50 L 62.125 63 L 49.4375 63 Z M 49.4375 50 " clip-rule="nonzero"/></clipPath><clipPath id="05b560784e"><path d="M 49.859375 56.441406 C 49.859375 53.027344 52.621094 50.265625 55.988281 50.265625 C 59.351562 50.265625 62.117188 53.027344 62.117188 56.441406 C 62.117188 59.855469 59.351562 62.617188 55.988281 62.617188 C 52.621094 62.617188 49.859375 59.832031 49.859375 56.441406 " clip-rule="nonzero"/></clipPath><clipPath id="a8a2d4212d"><path d="M 0.699219 0.175781 L 13.125 0.175781 L 13.125 12.839844 L 0.699219 12.839844 Z M 0.699219 0.175781 " clip-rule="nonzero"/></clipPath><clipPath id="81857a2160"><path d="M 0.859375 6.441406 C 0.859375 3.027344 3.621094 0.265625 6.988281 0.265625 C 10.351562 0.265625 13.117188 3.027344 13.117188 6.441406 C 13.117188 9.855469 10.351562 12.617188 6.988281 12.617188 C 3.621094 12.617188 0.859375 9.832031 0.859375 6.441406 " clip-rule="nonzero"/></clipPath><clipPath id="2c1dd3dea7"><rect x="0" width="14" y="0" height="13"/></clipPath><clipPath id="17b060814f"><path d="M 56.4375 63.4375 L 70.4375 63.4375 L 70.4375 101.941406 L 56.4375 101.941406 Z M 56.4375 63.4375 " clip-rule="nonzero"/></clipPath><clipPath id="7b872e6556"><path d="M 65.011719 101.472656 C 64.945312 101.492188 64.878906 101.492188 64.8125 101.515625 C 60.644531 102.347656 56.765625 99.089844 56.765625 94.777344 L 56.765625 64.097656 C 57.257812 64.054688 57.746094 63.941406 58.214844 63.808594 L 69.871094 92.148438 C 71.5 96.101562 69.179688 100.617188 65.011719 101.472656 " clip-rule="nonzero"/></clipPath><clipPath id="1b2e288e66"><path d="M 0.628906 0.796875 L 14.4375 0.796875 L 14.4375 38.941406 L 0.628906 38.941406 Z M 0.628906 0.796875 " clip-rule="nonzero"/></clipPath><clipPath id="ef15a775e7"><path d="M 9.011719 38.472656 C 8.945312 38.492188 8.878906 38.492188 8.8125 38.515625 C 4.644531 39.347656 0.765625 36.089844 0.765625 31.777344 L 0.765625 1.097656 C 1.257812 1.054688 1.746094 0.941406 2.214844 0.808594 L 13.871094 29.148438 C 15.5 33.101562 13.179688 37.617188 9.011719 38.472656 " clip-rule="nonzero"/></clipPath><clipPath id="08feb20d0f"><rect x="0" width="15" y="0" height="39"/></clipPath><clipPath id="27ca61f2f1"><path d="M 59.5 62.125 L 84.4375 62.125 L 84.4375 95.8125 L 59.5 95.8125 Z M 59.5 62.125 " clip-rule="nonzero"/></clipPath><clipPath id="11352490ef"><path d="M 81.394531 94.554688 C 81.351562 94.597656 81.304688 94.621094 81.238281 94.664062 C 77.695312 97.046875 72.878906 95.519531 71.253906 91.566406 L 59.621094 63.222656 C 60.066406 62.976562 60.464844 62.707031 60.84375 62.390625 L 82.351562 84.066406 C 85.363281 87.097656 84.914062 92.148438 81.394531 94.554688 " clip-rule="nonzero"/></clipPath><clipPath id="d72d38bbe2"><path d="M 0.5 0.363281 L 25.4375 0.363281 L 25.4375 33.8125 L 0.5 33.8125 Z M 0.5 0.363281 " clip-rule="nonzero"/></clipPath><clipPath id="db350e5a6e"><path d="M 22.394531 32.554688 C 22.351562 32.597656 22.304688 32.621094 22.238281 32.664062 C 18.695312 35.046875 13.878906 33.519531 12.253906 29.566406 L 0.621094 1.222656 C 1.066406 0.976562 1.464844 0.707031 1.84375 0.390625 L 23.351562 22.066406 C 26.363281 25.097656 25.914062 30.148438 22.394531 32.554688 " clip-rule="nonzero"/></clipPath><clipPath id="8fd6f59ab4"><rect x="0" width="26" y="0" height="34"/></clipPath><clipPath id="4ce91ced6d"><path d="M 61.6875 60 L 95.375 60 L 95.375 85.3125 L 61.6875 85.3125 Z M 61.6875 60 " clip-rule="nonzero"/></clipPath><clipPath id="113272b1b3"><path d="M 93.941406 81.886719 C 93.921875 81.929688 93.875 82 93.832031 82.042969 C 91.46875 85.59375 86.429688 86.042969 83.445312 83.007812 L 61.914062 61.3125 C 62.226562 60.933594 62.496094 60.503906 62.738281 60.078125 L 90.84375 71.800781 C 94.765625 73.441406 96.28125 78.316406 93.921875 81.886719 " clip-rule="nonzero"/></clipPath><clipPath id="3a371511e7"><path d="M 0.886719 0 L 34.375 0 L 34.375 25.3125 L 0.886719 25.3125 Z M 0.886719 0 " clip-rule="nonzero"/></clipPath><clipPath id="9375bb3117"><path d="M 32.941406 21.886719 C 32.921875 21.929688 32.875 22 32.832031 22.042969 C 30.46875 25.59375 25.429688 26.042969 22.445312 23.007812 L 0.914062 1.3125 C 1.226562 0.933594 1.496094 0.503906 1.738281 0.078125 L 29.84375 11.800781 C 33.765625 13.441406 35.28125 18.316406 32.921875 21.886719 " clip-rule="nonzero"/></clipPath><clipPath id="4d3d0c8549"><rect x="0" width="35" y="0" height="26"/></clipPath><clipPath id="7b094ca9c5"><path d="M 63 57 L 101 57 L 101 71 L 63 71 Z M 63 57 " clip-rule="nonzero"/></clipPath><clipPath id="0670f439b8"><path d="M 100.738281 65.3125 C 100.71875 65.378906 100.71875 65.445312 100.695312 65.492188 C 99.847656 69.691406 95.367188 72.027344 91.445312 70.386719 L 63.320312 58.664062 C 63.453125 58.191406 63.5625 57.699219 63.609375 57.203125 L 94.054688 57.203125 C 98.3125 57.203125 101.542969 61.113281 100.71875 65.3125 " clip-rule="nonzero"/></clipPath><clipPath id="281230046b"><path d="M 0.320312 0.105469 L 38 0.105469 L 38 14 L 0.320312 14 Z M 0.320312 0.105469 " clip-rule="nonzero"/></clipPath><clipPath id="75442ce2ba"><path d="M 37.738281 8.3125 C 37.71875 8.378906 37.71875 8.445312 37.695312 8.492188 C 36.847656 12.691406 32.367188 15.027344 28.445312 13.386719 L 0.320312 1.664062 C 0.453125 1.191406 0.5625 0.699219 0.609375 0.203125 L 31.054688 0.203125 C 35.3125 0.203125 38.542969 4.113281 37.71875 8.3125 " clip-rule="nonzero"/></clipPath><clipPath id="bd3b53641e"><rect x="0" width="38" y="0" height="14"/></clipPath><clipPath id="fa3f61d8a5"><path d="M 63 41.5625 L 101 41.5625 L 101 56 L 63 56 Z M 63 41.5625 " clip-rule="nonzero"/></clipPath><clipPath id="bb186c9a34"><path d="M 94.054688 55.675781 L 63.609375 55.675781 C 63.5625 55.183594 63.453125 54.6875 63.320312 54.214844 L 91.445312 42.46875 C 95.367188 40.832031 99.847656 43.167969 100.695312 47.367188 C 100.71875 47.433594 100.71875 47.5 100.738281 47.570312 C 101.566406 51.769531 98.332031 55.675781 94.078125 55.675781 " clip-rule="nonzero"/></clipPath><clipPath id="662f8e4f31"><path d="M 0.320312 0.5625 L 38 0.5625 L 38 14.910156 L 0.320312 14.910156 Z M 0.320312 0.5625 " clip-rule="nonzero"/></clipPath><clipPath id="5b21a36a1f"><path d="M 31.054688 14.675781 L 0.609375 14.675781 C 0.5625 14.183594 0.453125 13.6875 0.320312 13.214844 L 28.445312 1.46875 C 32.367188 -0.167969 36.847656 2.167969 37.695312 6.367188 C 37.71875 6.433594 37.71875 6.5 37.738281 6.570312 C 38.566406 10.769531 35.332031 14.675781 31.078125 14.675781 " clip-rule="nonzero"/></clipPath><clipPath id="4dd2d4884d"><rect x="0" width="38" y="0" height="15"/></clipPath></defs><g clip-path="url(#eb0e100c85)"><g clip-path="url(#218b7da521)"><g transform="matrix(1, 0, 0, 1, 59, 17)"><g clip-path="url(#6ba2992979)"><g clip-path="url(#d0bbfe4371)"><g clip-path="url(#b3545fdce8)"><rect x="-83.75" width="162" fill="#d71f26" height="161.999996" y="-41.749999" fill-opacity="1"/></g></g></g></g></g></g><g clip-path="url(#6c0b34fe52)"><g clip-path="url(#226572ba14)"><g transform="matrix(1, 0, 0, 1, 56, 11)"><g clip-path="url(#bb6cb26992)"><g clip-path="url(#d100526c62)"><g clip-path="url(#9508a2f411)"><rect x="-80.75" width="162" fill="#d71f26" height="161.999996" y="-35.749999" fill-opacity="1"/></g></g></g></g></g></g><g clip-path="url(#a6163bf24b)"><g clip-path="url(#4007a438a9)"><g transform="matrix(1, 0, 0, 1, 61, 27)"><g clip-path="url(#0ccc0571d8)"><g clip-path="url(#9f4cdaac70)"><g clip-path="url(#e712c1ec52)"><rect x="-85.75" width="162" fill="#d71f26" height="161.999996" y="-51.749999" fill-opacity="1"/></g></g></g></g></g></g><g clip-path="url(#88268f2d40)"><g clip-path="url(#2a75d03a51)"><g transform="matrix(1, 0, 0, 1, 27, 17)"><g clip-path="url(#2fba5c06a3)"><g clip-path="url(#bfdb4edf6f)"><g clip-path="url(#40e09dfabb)"><rect x="-51.75" width="162" fill="#d71f26" height="161.999996" y="-41.749999" fill-opacity="1"/></g></g></g></g></g></g><g clip-path="url(#37cce4b17c)"><g clip-path="url(#22c2764c98)"><g transform="matrix(1, 0, 0, 1, 16, 27)"><g clip-path="url(#641e6190c2)"><g clip-path="url(#ba967dc50b)"><g clip-path="url(#52947da47e)"><rect x="-40.75" width="162" fill="#d71f26" height="161.999996" y="-51.749999" fill-opacity="1"/></g></g></g></g></g></g><g clip-path="url(#3f375619ed)"><g clip-path="url(#a9c1d7697e)"><g transform="matrix(1, 0, 0, 1, 41, 11)"><g clip-path="url(#064f4e0576)"><g clip-path="url(#cfcbbd4a1a)"><g clip-path="url(#de1f6e6232)"><rect x="-65.75" width="162" fill="#d71f26" height="161.999996" y="-35.749999" fill-opacity="1"/></g></g></g></g></g></g><g clip-path="url(#9c0f1b2672)"><g clip-path="url(#1e99f9efef)"><g transform="matrix(1, 0, 0, 1, 11, 41)"><g clip-path="url(#92ff20955c)"><g clip-path="url(#286fe9b42c)"><g clip-path="url(#ef84500ed8)"><rect x="-35.75" width="162" fill="#d71f26" height="161.999996" y="-65.749999" fill-opacity="1"/></g></g></g></g></g></g><g clip-path="url(#edc93da2be)"><g clip-path="url(#f75311c3ad)"><g transform="matrix(1, 0, 0, 1, 11, 57)"><g clip-path="url(#61d6421c02)"><g clip-path="url(#dec956bbe6)"><g clip-path="url(#8b3577b567)"><rect x="-35.75" width="162" fill="#d71f26" height="161.999996" y="-81.749999" fill-opacity="1"/></g></g></g></g></g></g><g clip-path="url(#df9fc75301)"><g clip-path="url(#c5326bd133)"><g transform="matrix(1, 0, 0, 1, 16, 60)"><g clip-path="url(#2f51b04937)"><g clip-path="url(#a3a4abeff9)"><g clip-path="url(#9eac64add9)"><rect x="-40.75" width="162" fill="#d71f26" height="161.999996" y="-84.749999" fill-opacity="1"/></g></g></g></g></g></g><g clip-path="url(#3fb87f3291)"><g clip-path="url(#c6a6a2a60f)"><g transform="matrix(1, 0, 0, 1, 27, 62)"><g clip-path="url(#5d7095b6cb)"><g clip-path="url(#07556d7df2)"><g clip-path="url(#f6ecc060f9)"><rect x="-51.75" width="162" fill="#d71f26" height="161.999996" y="-86.749999" fill-opacity="1"/></g></g></g></g></g></g><g clip-path="url(#47eef56df1)"><g clip-path="url(#f51477b7c4)"><g transform="matrix(1, 0, 0, 1, 41, 63)"><g clip-path="url(#544ed4dd1b)"><g clip-path="url(#d10fcad7ef)"><g clip-path="url(#ca96687e27)"><rect x="-65.75" width="162" fill="#d71f26" height="161.999996" y="-87.749999" fill-opacity="1"/></g></g></g></g></g></g><g clip-path="url(#10a4698d39)"><g clip-path="url(#05b560784e)"><g transform="matrix(1, 0, 0, 1, 49, 50)"><g clip-path="url(#2c1dd3dea7)"><g clip-path="url(#a8a2d4212d)"><g clip-path="url(#81857a2160)"><rect x="-73.75" width="162" fill="#d71f26" height="161.999996" y="-74.749999" fill-opacity="1"/></g></g></g></g></g></g><g clip-path="url(#17b060814f)"><g clip-path="url(#7b872e6556)"><g transform="matrix(1, 0, 0, 1, 56, 63)"><g clip-path="url(#08feb20d0f)"><g clip-path="url(#1b2e288e66)"><g clip-path="url(#ef15a775e7)"><rect x="-80.75" width="162" fill="#d71f26" height="161.999996" y="-87.749999" fill-opacity="1"/></g></g></g></g></g></g><g clip-path="url(#27ca61f2f1)"><g clip-path="url(#11352490ef)"><g transform="matrix(1, 0, 0, 1, 59, 62)"><g clip-path="url(#8fd6f59ab4)"><g clip-path="url(#d72d38bbe2)"><g clip-path="url(#db350e5a6e)"><rect x="-83.75" width="162" fill="#d71f26" height="161.999996" y="-86.749999" fill-opacity="1"/></g></g></g></g></g></g><g clip-path="url(#4ce91ced6d)"><g clip-path="url(#113272b1b3)"><g transform="matrix(1, 0, 0, 1, 61, 60)"><g clip-path="url(#4d3d0c8549)"><g clip-path="url(#3a371511e7)"><g clip-path="url(#9375bb3117)"><rect x="-85.75" width="162" fill="#d71f26" height="161.999996" y="-84.749999" fill-opacity="1"/></g></g></g></g></g></g><g clip-path="url(#7b094ca9c5)"><g clip-path="url(#0670f439b8)"><g transform="matrix(1, 0, 0, 1, 63, 57)"><g clip-path="url(#bd3b53641e)"><g clip-path="url(#281230046b)"><g clip-path="url(#75442ce2ba)"><rect x="-87.75" width="162" fill="#d71f26" height="161.999996" y="-81.749999" fill-opacity="1"/></g></g></g></g></g></g><g clip-path="url(#fa3f61d8a5)"><g clip-path="url(#bb186c9a34)"><g transform="matrix(1, 0, 0, 1, 63, 41)"><g clip-path="url(#4dd2d4884d)"><g clip-path="url(#662f8e4f31)"><g clip-path="url(#5b21a36a1f)"><rect x="-87.75" width="162" fill="#d71f26" height="161.999996" y="-65.749999" fill-opacity="1"/></g></g></g></g></g></g></svg>
