<svg viewBox="0 0 981.64 246.14" xmlns="http://www.w3.org/2000/svg" xmlns:xlink="http://www.w3.org/1999/xlink"><clipPath id="a"><path d="m-65.36 0h1047v490h-1047z"/></clipPath><path d="m-408.36 0h1390v490h-1390z" fill="#fff"/><g clip-path="url(#a)"><g fill="#f2f2f2" opacity=".9"><path d="m200.72-3.17v44.91h-72.81v203.4h-51.66v-203.4h-73.18v-44.91zm1-1h-199.65v46.91h73.18v203.4h53.66v-203.4h72.81z"/><path d="m353-3.17c24.9 0 46 7.81 60.89 22.6 14.46 14.37 22.11 34.1 22.11 57.08 0 20-5.89 37.51-17 50.73a69.5 69.5 0 0 1 -37 22.61l-1.32.31.69 1.17 55.4 93.81h-58.83l-48.88-89.14-.28-.52h-40.62v89.69h-51.29v-248.34zm-64.8 114.83h56.92c22.68 0 38.52-14.6 38.52-35.52s-15.84-35.53-38.52-35.53h-56.96v71.05m64.84-115.83h-117.13v250.31h53.29v-89.69h39l49.16 89.69h61.17l-56.29-95.32c27-6.38 54.79-30 54.79-74.31.01-46.51-31.87-80.68-83.99-80.68zm-63.8 114.83v-69h55.92c21.39 0 37.52 13.51 37.52 34.53s-16.13 34.52-37.52 34.52z"/><path d="m529.46-3.17v248.31h-51.29v-248.31zm1-1h-53.29v250.31h53.29z"/><path d="m716.29-3.17 95.71 248.31h-56l-15.53-42.5-.24-.66h-113.23l-.24.66-15.52 42.5h-56.43l96.05-248.31zm-75.8 161h85.79l-.48-1.33-41.28-114.85-.94-2.65-.94 2.61-41.64 114.87-.49 1.34m76.49-161.99h-66.8l-96.85 250.31h58.55l15.76-43.14h111.83l15.77 43.16h58.17zm-75.06 161 41.64-114.83 41.28 114.83z"/><path d="m889-3.17v203.4h105.81v44.91h-157.12v-248.31zm1-1h-53.31v250.31h159.12v-46.91h-105.81z"/></g></g></svg>