<svg viewBox="0 0 350.85 88.16" xmlns="http://www.w3.org/2000/svg" xmlns:xlink="http://www.w3.org/1999/xlink"><clipPath id="a"><path d="m-24.15 0h375v110h-375z"/></clipPath><g clip-path="url(#a)" fill="#f2f2f2"><path d="m70.51-.49v14.8h-26.08v72.85h-17.22v-72.85h-26.21v-14.8zm1-1h-71.51v16.8h26.21v72.85h19.22v-72.85h26.08z"/><path d="m125.68-.49c17.41 0 29.11 11.21 29.11 27.89 0 15.63-9.74 23.49-18.86 25.65l-1.32.31.69 1.17 19.27 32.63h-19.57l-17.32-31.61-.28-.55h-15.57v32.16h-17.09v-87.65zm-23.85 41.13h21c8.51 0 14.45-5.5 14.45-13.37s-5.92-13.37-14.43-13.37h-21v26.74m23.83-42.13h-41.94v89.65h19.09v-32.16h14l17.6 32.13h21.91l-20.18-34.13c9.68-2.29 19.63-10.75 19.63-26.62 0-16.66-11.43-28.89-30.11-28.89zm-22.85 41.13v-24.74h20c7.67 0 13.45 4.84 13.45 12.37s-5.78 12.37-13.45 12.37z"/><path d="m188.25-.49v87.65h-17.08v-87.65zm1-1h-19.08v89.65h19.08z"/><path d="m255.37-.49 33.77 87.65h-18.67l-5.41-14.8-.24-.66h-41.45l-.24.66-5.41 14.8h-18.81l33.91-87.65zm-27.62 57.66h32.55l-.48-1.34-14.82-41.13-.93-2.61-.95 2.61-14.89 41.13zm28.31-58.66h-23.93l-34.68 89.65h21l5.65-15.46h40.05l5.65 15.46h20.8zm-26.89 57.66 14.92-41.17 14.79 41.13z"/><path d="m317-.49v72.85h37.91v14.8h-55v-87.65zm1-1h-19.07v89.65h57v-16.8h-37.93z"/></g></svg>