<svg viewBox="0 0 28 28" xmlns="http://www.w3.org/2000/svg"><path d="m14 3.75c3.34 0 3.73 0 5.05.08a6.55 6.55 0 0 1 2.32.43 3.73 3.73 0 0 1 1.44.93 3.73 3.73 0 0 1 .93 1.44 6.55 6.55 0 0 1 .43 2.37c.07 1.32.08 1.71.08 5.05s0 3.73-.08 5.05a6.55 6.55 0 0 1 -.43 2.32 4.07 4.07 0 0 1 -2.37 2.37 6.55 6.55 0 0 1 -2.32.43c-1.32.07-1.71.08-5.05.08s-3.73 0-5.05-.08a6.55 6.55 0 0 1 -2.32-.43 3.73 3.73 0 0 1 -1.44-.93 3.73 3.73 0 0 1 -.93-1.44 6.55 6.55 0 0 1 -.43-2.32c-.07-1.32-.08-1.71-.08-5.05s0-3.73.08-5.05a6.55 6.55 0 0 1 .43-2.32 3.73 3.73 0 0 1 .93-1.44 3.73 3.73 0 0 1 1.44-.93 6.55 6.55 0 0 1 2.37-.48c1.32-.07 1.71-.08 5.05-.08m-.05-2.25c-3.39 0-3.82 0-5.15.08a9.2 9.2 0 0 0 -3 .58 6 6 0 0 0 -2.25 1.44 6 6 0 0 0 -1.44 2.21 9.2 9.2 0 0 0 -.58 3c-.07 1.37-.08 1.8-.08 5.19s0 3.82.08 5.15a9.2 9.2 0 0 0 .58 3 6 6 0 0 0 1.44 2.25 6 6 0 0 0 2.21 1.44 9.2 9.2 0 0 0 3 .58c1.33.07 1.76.08 5.15.08s3.82 0 5.15-.08a9.2 9.2 0 0 0 3-.58 6.39 6.39 0 0 0 3.65-3.65 9.2 9.2 0 0 0 .58-3c.07-1.33.08-1.76.08-5.15s0-3.82-.08-5.15a9.2 9.2 0 0 0 -.58-3 6 6 0 0 0 -1.36-2.29 6 6 0 0 0 -2.21-1.44 9.2 9.2 0 0 0 -3-.58c-1.37-.07-1.8-.08-5.19-.08z"/><path d="m14 7.58a6.42 6.42 0 1 0 6.42 6.42 6.41 6.41 0 0 0 -6.42-6.42zm0 10.59a4.17 4.17 0 1 1 4.17-4.17 4.17 4.17 0 0 1 -4.17 4.17z"/><circle cx="20.67" cy="7.33" r="1.5"/></svg>