<svg viewBox="0 0 18 18" xmlns="http://www.w3.org/2000/svg"><g fill="#999"><path d="m9 1.62h3.64a5.12 5.12 0 0 1 1.67.38 2.77 2.77 0 0 1 1 .68 2.77 2.77 0 0 1 .68 1 5.12 5.12 0 0 1 .31 1.67c0 .95.05 1.24.05 3.64s0 2.69-.05 3.64a5.12 5.12 0 0 1 -.3 1.68 3.08 3.08 0 0 1 -1.69 1.69 5.12 5.12 0 0 1 -1.67.31c-1 0-1.24.05-3.64.05s-2.69 0-3.64-.05a5.12 5.12 0 0 1 -1.67-.31 2.77 2.77 0 0 1 -1-.68 2.77 2.77 0 0 1 -.68-1 5.12 5.12 0 0 1 -.31-1.67c0-1 0-1.24 0-3.64s0-2.69 0-3.64a5.12 5.12 0 0 1 .3-1.68 2.77 2.77 0 0 1 .68-1 2.77 2.77 0 0 1 1-.68 5.12 5.12 0 0 1 1.67-.31h3.64m.01-1.7c-2.44 0-2.75 0-3.71.05a6.9 6.9 0 0 0 -2.19.42 4.42 4.42 0 0 0 -1.59 1 4.42 4.42 0 0 0 -1 1.59 6.9 6.9 0 0 0 -.46 2.23c-.05.96-.05 1.27-.05 3.71s0 2.75.05 3.71a6.9 6.9 0 0 0 .42 2.19 4.42 4.42 0 0 0 1 1.59 4.42 4.42 0 0 0 1.59 1 6.9 6.9 0 0 0 2.23.51c1 0 1.27.05 3.71.05s2.75 0 3.71-.05a6.9 6.9 0 0 0 2.19-.42 4.64 4.64 0 0 0 2.63-2.63 6.9 6.9 0 0 0 .47-2.24c0-1 .05-1.27.05-3.71s-.05-2.75-.05-3.71a6.9 6.9 0 0 0 -.42-2.19 4.42 4.42 0 0 0 -1-1.59 4.42 4.42 0 0 0 -1.59-1 6.9 6.9 0 0 0 -2.28-.46c-1 0-1.27 0-3.71 0z"/><path d="m9 4.38a4.62 4.62 0 1 0 4.62 4.62 4.62 4.62 0 0 0 -4.62-4.62zm0 7.62a3 3 0 1 1 3-3 3 3 0 0 1 -3 3z"/><circle cx="13.8" cy="4.2" r="1.08"/></g></svg>