<svg viewBox="0 0 241 56.44" xmlns="http://www.w3.org/2000/svg"><path d="m13.58 12.73h-5.74v-3.85a6.61 6.61 0 0 0 -.19-2.09.79.79 0 0 0 -.81-.41.86.86 0 0 0 -.9.5 7.66 7.66 0 0 0 -.19 2.19v10.26a7.13 7.13 0 0 0 .19 2.11.81.81 0 0 0 .86.49.8.8 0 0 0 .84-.49 8.12 8.12 0 0 0 .2-2.32v-2.78h5.74v.87a17.09 17.09 0 0 1 -.48 4.86 5 5 0 0 1 -2.1 2.52 7.35 7.35 0 0 1 -4.09 1.08 8.5 8.5 0 0 1 -4.17-.91 4.48 4.48 0 0 1 -2.21-2.54 16.79 16.79 0 0 1 -.53-4.86v-6.46a28.8 28.8 0 0 1 .16-3.59 5.09 5.09 0 0 1 1-2.3 5.54 5.54 0 0 1 2.23-1.74 8.21 8.21 0 0 1 3.31-.63 8 8 0 0 1 4.19 1 4.69 4.69 0 0 1 2.18 2.45 14.89 14.89 0 0 1 .51 4.56z" fill="#231815"/><path d="m21 7.09-.22 2.38a4.09 4.09 0 0 1 3.48-2.71v6.38a4.51 4.51 0 0 0 -2.22.41 1.7 1.7 0 0 0 -.88 1.14 20.43 20.43 0 0 0 -.16 3.36v7.16h-5.52v-18.12z" fill="#231815"/><path d="m38 13.45v4.44a18.1 18.1 0 0 1 -.25 3.58 5 5 0 0 1 -1 2.13 4.63 4.63 0 0 1 -2.07 1.46 8.13 8.13 0 0 1 -2.9.47 10.33 10.33 0 0 1 -3.1-.4 4.27 4.27 0 0 1 -2-1.21 4.84 4.84 0 0 1 -1-2 14.78 14.78 0 0 1 -.3-3.46v-4.61a11.49 11.49 0 0 1 .54-3.95 4.53 4.53 0 0 1 2-2.28 7 7 0 0 1 3.63-.86 8.28 8.28 0 0 1 3.19.55 5.09 5.09 0 0 1 2.05 1.44 5 5 0 0 1 1 1.83 11.27 11.27 0 0 1 .21 2.87zm-5.52-1.36a6.06 6.06 0 0 0 -.15-1.76.62.62 0 0 0 -.64-.36.64.64 0 0 0 -.65.36 5.48 5.48 0 0 0 -.17 1.76v8.17a5.25 5.25 0 0 0 .13 1.68.62.62 0 0 0 .64.38.63.63 0 0 0 .66-.32 4.87 4.87 0 0 0 .15-1.53z" fill="#231815"/><path d="m51.05 12.88h-4.89v-1a5.54 5.54 0 0 0 -.16-1.58q-.13-.3-.7-.3a.82.82 0 0 0 -.7.31 1.54 1.54 0 0 0 -.23.92 4.52 4.52 0 0 0 .12 1.22 2 2 0 0 0 .69.85 15.42 15.42 0 0 0 2.39 1.35 8.65 8.65 0 0 1 3.15 2.22 5.08 5.08 0 0 1 .75 3 7.63 7.63 0 0 1 -.57 3.34 3.83 3.83 0 0 1 -1.9 1.72 7.94 7.94 0 0 1 -3.24.6 8.91 8.91 0 0 1 -3.6-.65 3.9 3.9 0 0 1 -2-1.78 7.73 7.73 0 0 1 -.56-3.38v-.88h4.88v1.16a5.79 5.79 0 0 0 .19 1.9.7.7 0 0 0 .73.43 1 1 0 0 0 .82-.29 2.22 2.22 0 0 0 .23-1.23 2.76 2.76 0 0 0 -.3-1.63 26.08 26.08 0 0 0 -3.21-1.94 7 7 0 0 1 -3-2.48 6 6 0 0 1 -.53-2.64 6.9 6.9 0 0 1 .59-3.21 3.69 3.69 0 0 1 1.94-1.59 8.49 8.49 0 0 1 3.19-.56 8.94 8.94 0 0 1 3.07.46 4.68 4.68 0 0 1 1.94 1.21 3.28 3.28 0 0 1 .82 1.39 10.67 10.67 0 0 1 .14 2z" fill="#231815"/><path d="m64.21 12.88h-4.89v-1a5.54 5.54 0 0 0 -.14-1.59q-.18-.29-.72-.29a.79.79 0 0 0 -.69.31 1.47 1.47 0 0 0 -.24.92 4.52 4.52 0 0 0 .12 1.22 1.94 1.94 0 0 0 .7.85 14.69 14.69 0 0 0 2.38 1.35 8.65 8.65 0 0 1 3.15 2.22 5.08 5.08 0 0 1 .75 3 7.63 7.63 0 0 1 -.57 3.34 3.83 3.83 0 0 1 -1.92 1.74 7.91 7.91 0 0 1 -3.24.6 8.91 8.91 0 0 1 -3.6-.65 3.9 3.9 0 0 1 -2-1.78 7.73 7.73 0 0 1 -.56-3.38v-.88h4.88v1.14a6.09 6.09 0 0 0 .19 1.9.71.71 0 0 0 .73.43 1 1 0 0 0 .82-.29 2.22 2.22 0 0 0 .23-1.23 2.76 2.76 0 0 0 -.3-1.63 26.08 26.08 0 0 0 -3.29-1.95 7 7 0 0 1 -3-2.48 6 6 0 0 1 -.53-2.64 6.9 6.9 0 0 1 .57-3.2 3.68 3.68 0 0 1 2-1.59 8.4 8.4 0 0 1 3.18-.56 8.9 8.9 0 0 1 3.07.46 4.68 4.68 0 0 1 1.94 1.21 3.28 3.28 0 0 1 .82 1.39 10.67 10.67 0 0 1 .14 2z" fill="#231815"/><path d="m66.27 3.1h9.73v4.43h-4v4.19h3.55v4.2h-3.55v9.29h-5.73z" fill="#231815"/><path d="m82.91 3.1v2.9h-5.67v-2.9zm0 4v18.11h-5.67v-18.12z" fill="#231815"/><path d="m90.71 4.67v2.86h1.49v2.86h-1.49v9.7a5.33 5.33 0 0 0 .18 2c.13.14.64.2 1.54.2v2.93h-2.22a16.25 16.25 0 0 1 -2.69-.16 2.89 2.89 0 0 1 -1.42-.73 2.36 2.36 0 0 1 -.77-1.33 23.08 23.08 0 0 1 -.15-3.44v-9.2h-1.18v-2.83h1.19v-2.86z" fill="#231815"/><path d="m133.69 3.58h4.07a31.06 31.06 0 0 1 5.5.31 3.75 3.75 0 0 1 2.35 1.6 7.26 7.26 0 0 1 .91 4.12 6.42 6.42 0 0 1 -.64 3.47 3.35 3.35 0 0 1 -2.53 1.06 4.34 4.34 0 0 1 2.3 1.14 3.4 3.4 0 0 1 .73 1.3 21.63 21.63 0 0 1 .14 3.27v5.83h-5.34v-7.34a5 5 0 0 0 -.28-2.2c-.18-.28-.67-.43-1.46-.43v10h-5.75zm5.75 3.78v4.91a2.59 2.59 0 0 0 1.35-.26c.26-.18.39-.76.39-1.73v-1.22a1.81 1.81 0 0 0 -.37-1.37 2.13 2.13 0 0 0 -1.37-.33z" fill="#231815"/><path d="m161.06 13.93v4.43a19.23 19.23 0 0 1 -.24 3.59 5.09 5.09 0 0 1 -1.06 2.13 4.74 4.74 0 0 1 -2.06 1.46 8.42 8.42 0 0 1 -2.91.47 10.54 10.54 0 0 1 -3.09-.4 4.27 4.27 0 0 1 -2-1.22 4.78 4.78 0 0 1 -1-2 14.73 14.73 0 0 1 -.3-3.46v-4.61a11.43 11.43 0 0 1 .54-3.94 4.53 4.53 0 0 1 2-2.28 6.87 6.87 0 0 1 3.63-.86 8.28 8.28 0 0 1 3.19.55 5.2 5.2 0 0 1 2.06 1.44 5.15 5.15 0 0 1 1 1.83 11.8 11.8 0 0 1 .24 2.87zm-5.51-1.37a6 6 0 0 0 -.15-1.75.63.63 0 0 0 -.65-.37.64.64 0 0 0 -.65.37 5.4 5.4 0 0 0 -.17 1.75v8.18a5.22 5.22 0 0 0 .17 1.67.63.63 0 0 0 .64.39.64.64 0 0 0 .65-.36 4.65 4.65 0 0 0 .16-1.52z" fill="#231815"/><path d="m168.49 7.56-.1 1.6a5.24 5.24 0 0 1 1.61-1.45 4 4 0 0 1 2-.47 3.67 3.67 0 0 1 2.21.68 2.83 2.83 0 0 1 1.17 1.6 13.53 13.53 0 0 1 .23 3.05v7.64a14.37 14.37 0 0 1 -.29 3.51 3 3 0 0 1 -1.2 1.67 3.84 3.84 0 0 1 -2.19.62 3.89 3.89 0 0 1 -1.9-.48 5.27 5.27 0 0 1 -1.6-1.42v4.15h-5.51v-20.7zm1.57 5.27a9.4 9.4 0 0 0 -.12-2c-.09-.24-.31-.36-.69-.36a.67.67 0 0 0 -.7.41 7.12 7.12 0 0 0 -.16 2v7.51a7.3 7.3 0 0 0 .17 2.05.68.68 0 0 0 .71.41.62.62 0 0 0 .66-.38 7.22 7.22 0 0 0 .13-1.82z" fill="#231815"/><path d="m183 7.56-.09 1.6a5.21 5.21 0 0 1 1.62-1.45 4 4 0 0 1 1.94-.47 3.7 3.7 0 0 1 2.22.68 2.93 2.93 0 0 1 1.17 1.6 14.16 14.16 0 0 1 .23 3.05v7.64a14.24 14.24 0 0 1 -.3 3.51 2.89 2.89 0 0 1 -1.2 1.67 3.79 3.79 0 0 1 -2.19.62 3.91 3.91 0 0 1 -1.9-.48 5.13 5.13 0 0 1 -1.59-1.42v4.15h-5.52v-20.7zm1.57 5.27a9.4 9.4 0 0 0 -.12-2c-.08-.24-.31-.36-.68-.36a.68.68 0 0 0 -.71.41 7.73 7.73 0 0 0 -.15 2v7.51a7.46 7.46 0 0 0 .16 2.05.69.69 0 0 0 .71.41c.36 0 .58-.13.66-.38a7.22 7.22 0 0 0 .13-1.82z" fill="#231815"/><path d="m204.38 13.93v4.43a19.23 19.23 0 0 1 -.24 3.59 5.19 5.19 0 0 1 -1 2.13 4.83 4.83 0 0 1 -2.14 1.46 8.4 8.4 0 0 1 -2.9.47 10.61 10.61 0 0 1 -3.1-.4 4.27 4.27 0 0 1 -2-1.22 4.78 4.78 0 0 1 -1-2 14.73 14.73 0 0 1 -.3-3.46v-4.61a11.16 11.16 0 0 1 .55-3.94 4.51 4.51 0 0 1 2-2.28 6.87 6.87 0 0 1 3.63-.86 8.28 8.28 0 0 1 3.19.55 5.2 5.2 0 0 1 2.06 1.44 5.15 5.15 0 0 1 1 1.83 11.8 11.8 0 0 1 .25 2.87zm-5.51-1.37a6 6 0 0 0 -.15-1.75.62.62 0 0 0 -.65-.37.64.64 0 0 0 -.65.37 5.51 5.51 0 0 0 -.16 1.75v8.18a5.32 5.32 0 0 0 .16 1.67.74.74 0 0 0 1.29 0 4.65 4.65 0 0 0 .16-1.52z" fill="#231815"/><path d="m211.81 7.56-.1 1.67a4.23 4.23 0 0 1 1.47-1.5 4 4 0 0 1 2-.49 3.82 3.82 0 0 1 2.32.66 3 3 0 0 1 1.16 1.69 15 15 0 0 1 .26 3.39v12.7h-5.51v-12.55a10.88 10.88 0 0 0 -.13-2.28c-.08-.27-.31-.41-.68-.41a.69.69 0 0 0 -.74.48 11.76 11.76 0 0 0 -.15 2.51v12.25h-5.51v-18.12z" fill="#231815"/><path d="m233.35 7.56v14a33.31 33.31 0 0 1 -.12 3.65 3.71 3.71 0 0 1 -.93 1.75 5 5 0 0 1 -2.2 1.4 10.92 10.92 0 0 1 -3.56.49 8.57 8.57 0 0 1 -4.23-.9q-1.6-.89-1.65-3.51h5.34q0 1.2.87 1.2a.87.87 0 0 0 .84-.37 3.87 3.87 0 0 0 .2-1.54v-1.41a5.22 5.22 0 0 1 -1.49 1 4.26 4.26 0 0 1 -1.65.33 4.56 4.56 0 0 1 -2.45-.6 3.11 3.11 0 0 1 -1.32-1.61 8.7 8.7 0 0 1 -.35-2.78v-6.58a5.85 5.85 0 0 1 .93-3.71 3.41 3.41 0 0 1 2.82-1.13 4.23 4.23 0 0 1 1.89.42 4.56 4.56 0 0 1 1.53 1.27l.39-1.37zm-5.52 4.81a5 5 0 0 0 -.15-1.58.61.61 0 0 0 -.63-.35.7.7 0 0 0 -.68.39 3.94 3.94 0 0 0 -.2 1.54v6.09a5.17 5.17 0 0 0 .15 1.58.61.61 0 0 0 .63.36.68.68 0 0 0 .71-.44 7.08 7.08 0 0 0 .17-2z" fill="#231815"/><path d="m241 3.58v2.88h-5.68v-2.88zm0 4v18.1h-5.68v-18.12z" fill="#231815"/><g fill="#d70a17"><path d="m118.54 3.76a2.55 2.55 0 0 1 3.76-1.15h.06a2.56 2.56 0 0 1 .36 3.92l-8.1 8.09a2.85 2.85 0 0 0 -.46-.31z"/><path d="m113.63 14.12a3.15 3.15 0 0 0 -.55-.11v-11.45a2.55 2.55 0 0 1 3-2.51h.08a2.56 2.56 0 0 1 1.84 3.49z"/><path d="m123.12 7a2.54 2.54 0 0 1 3.91.36v.06a2.55 2.55 0 0 1 -1.16 3.76l-10.57 4.38a3.82 3.82 0 0 0 -.31-.47z"/><path d="m102.88 6.56a2.56 2.56 0 0 1 .36-3.92h.06a2.55 2.55 0 0 1 3.76 1.15l4.38 10.58a2.85 2.85 0 0 0 -.46.31z"/><path d="m110.57 15.05a3.82 3.82 0 0 0 -.31.47l-10.57-4.38a2.55 2.55 0 0 1 -1.16-3.76v-.06a2.54 2.54 0 0 1 3.95-.32z"/><path d="m107.58 3.54a2.56 2.56 0 0 1 1.83-3.48h.07a2.55 2.55 0 0 1 3 2.51v11.43a3.23 3.23 0 0 0 -.54.11z"/><path d="m96 13.56v-.07a2.55 2.55 0 0 1 3.48-1.83l10.52 4.34a3.35 3.35 0 0 0 -.11.55h-11.41a2.55 2.55 0 0 1 -2.48-2.99z"/><path d="m96 20.26v-.07a2.55 2.55 0 0 1 2.51-3h11.45a3.35 3.35 0 0 0 .11.55l-10.61 4.35a2.55 2.55 0 0 1 -3.46-1.83z"/><path d="m98.57 26.44v-.06a2.55 2.55 0 0 1 1.16-3.76l10.57-4.38a3.7 3.7 0 0 0 .31.46l-8.09 8.1a2.56 2.56 0 0 1 -3.95-.36z"/><path d="m103.3 31.15h-.06a2.55 2.55 0 0 1 -.36-3.91l8.1-8.1a2.32 2.32 0 0 0 .46.31l-4.38 10.55a2.55 2.55 0 0 1 -3.76 1.15z"/><path d="m112.51 31.2a2.55 2.55 0 0 1 -3 2.51h-.07a2.55 2.55 0 0 1 -1.83-3.47l4.39-10.61a2.47 2.47 0 0 0 .54.11z"/><path d="m110.49 16.88a2.31 2.31 0 1 1 2.31 2.31 2.31 2.31 0 0 1 -2.31-2.31z"/><path d="m116.19 33.69h-.08a2.55 2.55 0 0 1 -3-2.51v-11.44a2.44 2.44 0 0 0 .55-.11l4.34 10.59a2.55 2.55 0 0 1 -1.81 3.47z"/><path d="m122.36 31.11h-.06a2.55 2.55 0 0 1 -3.76-1.11l-4.38-10.58a2.32 2.32 0 0 0 .46-.31l8.1 8.1a2.55 2.55 0 0 1 -.36 3.9z"/><path d="m127.07 26.38v.06a2.56 2.56 0 0 1 -3.91.36l-8.16-8.1a3.7 3.7 0 0 0 .31-.46l10.57 4.38a2.55 2.55 0 0 1 1.19 3.76z"/><path d="m129.63 20.19v.07a2.54 2.54 0 0 1 -3.47 1.83l-10.59-4.38a2.07 2.07 0 0 0 .11-.55h11.46a2.55 2.55 0 0 1 2.49 3.03z"/><path d="m127.12 16.59h-11.46a2.07 2.07 0 0 0 -.11-.55l10.59-4.38a2.54 2.54 0 0 1 3.47 1.83v.07a2.55 2.55 0 0 1 -2.49 3.03z"/></g><path d="m21.98 38.86h33.51v2.75h-33.51z" fill="#b12028"/><path d="m185.52 39.84h33.51v1.77h-33.51z" fill="#b12028"/><g fill="#231815"><path d="m66.07 36.76h-.55-.57-.55-.48a1.39 1.39 0 0 0 0-.32 1.68 1.68 0 0 0 0-.32h1.3 2.59 1.3a1.65 1.65 0 0 0 0 .33 1.4 1.4 0 0 0 0 .31h-.48-.55-.57-.51v2.08 1.73 1.31 1.27a4 4 0 0 0 -.5 0 3.93 3.93 0 0 0 -.49 0l.06-1.27c0-.43 0-.87 0-1.31v-1.73c.03-.7.02-1.39 0-2.08z"/><path d="m71.37 39.7a4 4 0 0 1 .28-1.52 3.13 3.13 0 0 1 .78-1.13 3.46 3.46 0 0 1 1.19-.71 4.61 4.61 0 0 1 1.52-.24 4.72 4.72 0 0 1 1.53.24 3.46 3.46 0 0 1 1.19.71 3.26 3.26 0 0 1 .78 1.13 4.44 4.44 0 0 1 0 3 3.26 3.26 0 0 1 -.78 1.13 3.13 3.13 0 0 1 -1.19.69 5 5 0 0 1 -1.53.23 4.89 4.89 0 0 1 -1.52-.23 3.14 3.14 0 0 1 -2-1.82 4.05 4.05 0 0 1 -.25-1.48zm6.56 0a4.19 4.19 0 0 0 -.22-1.44 2.76 2.76 0 0 0 -.58-1 2.37 2.37 0 0 0 -.89-.58 3.07 3.07 0 0 0 -1.1-.2 3 3 0 0 0 -1.09.2 2.29 2.29 0 0 0 -.89.58 2.78 2.78 0 0 0 -.59 1 5.08 5.08 0 0 0 0 2.89 2.87 2.87 0 0 0 .59 1 2.29 2.29 0 0 0 .89.58 3 3 0 0 0 1.09.2 3.07 3.07 0 0 0 1.1-.2 2.37 2.37 0 0 0 .89-.58 2.85 2.85 0 0 0 .58-1 4.21 4.21 0 0 0 .22-1.45z"/><path d="m82.25 43.15.06-1.27c0-.43 0-.87 0-1.31v-1.73c0-.44 0-.88 0-1.3s0-.86-.06-1.31h.25.5.25c0 .45 0 .88-.06 1.31s0 .86 0 1.3v.55c0 .06 0 .08.06.08s.07 0 .14-.09c.23-.2.48-.43.74-.68s.52-.52.78-.8.52-.55.77-.84.5-.56.74-.83h.21.37.24c-.23.2-.5.44-.79.72s-.59.55-.89.84l-.86.85-.68.73c.55.61 1.1 1.24 1.65 1.87l1.68 1.91a1.51 1.51 0 0 0 -.3 0h-.58a1.23 1.23 0 0 0 -.27 0c-.24-.28-.51-.59-.8-.95l-.86-1-.75-.9c-.23-.26-.39-.45-.5-.55s-.09-.09-.12-.09 0 0 0 .06v.88 1.31l.06 1.27a3.93 3.93 0 0 0 -.49 0 4 4 0 0 0 -.49-.03z"/><path d="m92.17 40.32-.29-.5-.43-.72-.5-.84-.5-.83-.45-.72-.29-.48h.28.55.28c.3.59.61 1.16.92 1.72s.64 1.15 1 1.77l.48-.8c.17-.29.34-.58.5-.88l.49-.92c.15-.3.3-.6.43-.89a1.71 1.71 0 0 0 .39.05 1.59 1.59 0 0 0 .39-.05l-.86 1.33c-.26.4-.48.76-.67 1.08s-.37.61-.52.87-.27.49-.38.7v.79.83s0 .53 0 .76 0 .42 0 .56a3.85 3.85 0 0 0 -.49 0 4 4 0 0 0 -.5 0 11.11 11.11 0 0 0 .07-1.27c.1-.5.1-1.02.1-1.56z"/><path d="m97.54 39.7a3.85 3.85 0 0 1 .28-1.52 3.11 3.11 0 0 1 .77-1.13 3.46 3.46 0 0 1 1.19-.71 5 5 0 0 1 3 0 3.46 3.46 0 0 1 1.19.71 3.13 3.13 0 0 1 .78 1.13 4.29 4.29 0 0 1 0 3 3.14 3.14 0 0 1 -2 1.82 5.17 5.17 0 0 1 -3 0 3.09 3.09 0 0 1 -2-1.82 3.87 3.87 0 0 1 -.21-1.48zm6.55 0a4.46 4.46 0 0 0 -.21-1.44 2.78 2.78 0 0 0 -.59-1 2.29 2.29 0 0 0 -.89-.58 3.1 3.1 0 0 0 -2.19 0 2.37 2.37 0 0 0 -.89.58 2.76 2.76 0 0 0 -.58 1 4.86 4.86 0 0 0 0 2.89 2.85 2.85 0 0 0 .58 1 2.37 2.37 0 0 0 .89.58 3.1 3.1 0 0 0 2.19 0 2.29 2.29 0 0 0 .89-.58 2.87 2.87 0 0 0 .59-1 4.48 4.48 0 0 0 .21-1.45z"/><path d="m115.35 38.88c.48.9 1 1.82 1.49 2.77l.29-.55c.13-.24.28-.51.44-.82l.54-1 .59-1.09c.19-.37.39-.74.58-1.09l.55-1h.17c.07.65.14 1.27.2 1.87s.13 1.19.2 1.77.14 1.15.2 1.72.14 1.13.22 1.69a.93.93 0 0 0 -.23 0h-.48a.93.93 0 0 0 -.23 0c-.08-.9-.15-1.76-.22-2.6s-.17-1.69-.28-2.57l-1.38 2.52c-.45.84-.87 1.71-1.27 2.63h-.09c-.4-.85-.83-1.7-1.27-2.54s-.92-1.72-1.37-2.59c0 .42-.1.87-.15 1.36s-.11 1-.16 1.44-.09.92-.12 1.33 0 .77 0 1a2 2 0 0 0 -.35 0 2.06 2.06 0 0 0 -.36 0c.09-.55.18-1.12.28-1.72l.27-1.83.24-1.8c.07-.6.14-1.16.19-1.7h.16c.41.98.88 1.92 1.35 2.8z"/><path d="m124.24 37.54c0-.43 0-.86-.06-1.31h.26.48.25v1.31s0 .86 0 1.3v1.73 1.31s0 .85 0 1.27a3.85 3.85 0 0 0 -.49 0 4 4 0 0 0 -.5 0c0-.42 0-.84.06-1.27s0-.87 0-1.31v-1.73c.03-.44.02-.84 0-1.3z"/><path d="m129.08 38.84c0-.44 0-.88 0-1.3s0-.86-.06-1.31h.76.76.76.76a4.29 4.29 0 0 1 1.52.24 2.64 2.64 0 0 1 1 .65 2.71 2.71 0 0 1 .59 1.05 5 5 0 0 1 .18 1.39 3.76 3.76 0 0 1 -.34 1.7 3.19 3.19 0 0 1 -.89 1.11 3.34 3.34 0 0 1 -1.19.6 4.59 4.59 0 0 1 -1.24.18h-2c-.22 0-.45 0-.68 0l.06-1.27c0-.43 0-.87 0-1.31zm.82 1.73q0 1.09.06 2.13a3.23 3.23 0 0 0 .57.08h.75a4.67 4.67 0 0 0 1.11-.13 2.36 2.36 0 0 0 1-.49 2.58 2.58 0 0 0 .71-1 4 4 0 0 0 .28-1.63 3.87 3.87 0 0 0 -.22-1.43 2.18 2.18 0 0 0 -.59-.9 2.25 2.25 0 0 0 -.9-.45 5.14 5.14 0 0 0 -1.15-.12q-.45 0-.84 0l-.71.07v1s0 .71 0 1.07z"/><path d="m140.28 36.76h-.54-.58-.55-.48a1 1 0 0 0 .05-.32 1.14 1.14 0 0 0 -.05-.32h1.3 2.57 1.29a1.65 1.65 0 0 0 0 .33 1.4 1.4 0 0 0 0 .31h-.47-.56-.57-.55v2.08 1.73 1.31s0 .85.05 1.27a3.85 3.85 0 0 0 -.49 0 4 4 0 0 0 -.5 0c0-.42 0-.84.06-1.27s0-.87 0-1.31v-1.73c.05-.7.05-1.39.02-2.08z"/><path d="m145.59 39.7a3.85 3.85 0 0 1 .28-1.52 3.11 3.11 0 0 1 .77-1.13 3.46 3.46 0 0 1 1.19-.71 5 5 0 0 1 3 0 3.46 3.46 0 0 1 1.19.71 3.13 3.13 0 0 1 .78 1.13 4.29 4.29 0 0 1 0 3 3.14 3.14 0 0 1 -2 1.82 5.17 5.17 0 0 1 -3 0 3.09 3.09 0 0 1 -2-1.82 3.87 3.87 0 0 1 -.21-1.48zm6.55 0a4.46 4.46 0 0 0 -.21-1.44 2.78 2.78 0 0 0 -.59-1 2.29 2.29 0 0 0 -.89-.58 3.1 3.1 0 0 0 -2.19 0 2.37 2.37 0 0 0 -.89.58 2.76 2.76 0 0 0 -.58 1 4.86 4.86 0 0 0 0 2.89 2.85 2.85 0 0 0 .58 1 2.37 2.37 0 0 0 .89.58 3.1 3.1 0 0 0 2.19 0 2.29 2.29 0 0 0 .89-.58 2.87 2.87 0 0 0 .59-1 4.48 4.48 0 0 0 .21-1.45z"/><path d="m157.68 43.15-.24-.8-.38-1.23c-.14-.45-.29-.93-.44-1.43s-.3-1-.44-1.43-.28-.86-.39-1.22-.21-.63-.28-.81h.25.51.25c.12.51.25 1 .37 1.44s.25.9.39 1.36.28.94.44 1.44l.54 1.72c.06-.18.14-.43.25-.75s.22-.67.35-1.06l.4-1.2c.15-.41.28-.81.4-1.19s.22-.73.32-1 .16-.55.2-.72a1.11 1.11 0 0 0 .66 0c0 .18.12.43.22.75l.33 1.05q.18.59.39 1.2t.39 1.2c.13.38.25.73.35 1s.19.55.25.72c0-.15.12-.38.21-.69s.21-.66.33-1.06.26-.8.39-1.23.25-.85.37-1.24.22-.74.31-1 .15-.54.19-.69h.17.36.17c-.07.16-.16.41-.29.77s-.27.76-.43 1.22-.32.94-.49 1.44-.34 1-.49 1.46l-.43 1.24c-.12.36-.21.63-.27.79a1.88 1.88 0 0 0 -.34 0 1.94 1.94 0 0 0 -.35 0c-.3-.94-.6-1.87-.89-2.82s-.62-1.91-1-2.92c0 .15-.12.36-.22.62l-.3.87c-.11.32-.23.67-.35 1l-.39 1.11c-.12.38-.25.75-.37 1.11l-.33 1a2 2 0 0 0 -.35 0 2.06 2.06 0 0 0 -.3-.02z"/><path d="m171.64 40.54c-.87-.94-1.74-1.87-2.62-2.8v.76s0 .74 0 1.29v.52s0 .42 0 .65 0 .46 0 .7 0 .45 0 .65 0 .38 0 .53 0 .25 0 .31a2.06 2.06 0 0 0 -.36 0 2.17 2.17 0 0 0 -.37 0c0-.07 0-.19 0-.38s0-.39 0-.64 0-.53.05-.83 0-.59 0-.88 0-.58 0-.87 0-.53 0-.75v-1.66c0-.46 0-.81 0-1h.16l1.5 1.39c.46.5.93 1 1.38 1.5l1.31 1.39 1.08 1.13v-1.37c0-.71 0-1.39 0-2.06s0-1.3-.07-1.89a1.22 1.22 0 0 0 .35.05 1.14 1.14 0 0 0 .32-.05v.67s0 .61-.05.94 0 .67 0 1 0 .58 0 .77v1.32.75s0 .49 0 .71 0 .4 0 .57v.33h-.14c-.85-.9-1.67-1.82-2.54-2.75z"/><path d="m21.53 55.54a1.24 1.24 0 0 0 .28.28 1.17 1.17 0 0 0 .38.21 1.53 1.53 0 0 0 .49.08 1.12 1.12 0 0 0 .5-.1 1.16 1.16 0 0 0 .39-.26 1.28 1.28 0 0 0 .24-.39 1.51 1.51 0 0 0 .08-.48.9.9 0 0 0 -.2-.61 1.44 1.44 0 0 0 -.49-.38 4.12 4.12 0 0 0 -.64-.28 3.48 3.48 0 0 1 -.64-.32 1.64 1.64 0 0 1 -.49-.49 1.32 1.32 0 0 1 -.2-.79 1.71 1.71 0 0 1 .12-.65 1.52 1.52 0 0 1 .37-.5 1.83 1.83 0 0 1 .58-.33 2.29 2.29 0 0 1 .76-.12 2.07 2.07 0 0 1 .7.1 1.48 1.48 0 0 1 .55.3 1.34 1.34 0 0 0 -.12.3 2.46 2.46 0 0 0 -.1.41h-.09a1.12 1.12 0 0 0 -.11-.26 1.15 1.15 0 0 0 -.19-.26 1.31 1.31 0 0 0 -.3-.2 1 1 0 0 0 -.4-.08 1.23 1.23 0 0 0 -.44.08 1 1 0 0 0 -.65 1 .9.9 0 0 0 .2.63 1.57 1.57 0 0 0 .49.38 4.12 4.12 0 0 0 .64.28 3.41 3.41 0 0 1 .64.3 1.54 1.54 0 0 1 .49.46 1.18 1.18 0 0 1 .2.74 2 2 0 0 1 -.14.74 1.75 1.75 0 0 1 -.4.6 1.7 1.7 0 0 1 -.66.4 2.56 2.56 0 0 1 -.87.14 2.25 2.25 0 0 1 -.85-.14 2.21 2.21 0 0 1 -.55-.32 2 2 0 0 0 .11-.35 3.09 3.09 0 0 0 0-.4h.1a1.73 1.73 0 0 0 .22.28z"/><path d="m28.6 51h-.46-.48-.46-.41a1 1 0 0 0 .05-.27 1.14 1.14 0 0 0 -.05-.26h1.09 2.19 1.09a1 1 0 0 0 0 .27.92.92 0 0 0 0 .26h-.4-.47-.48-.46v1.75 1.46 1.1s0 .71.05 1.06h-.41-.42c0-.35 0-.7.05-1.06s0-.73 0-1.1v-1.5c.01-.59 0-1.17-.02-1.71z"/><path d="m33.85 52.71c0-.37 0-.74 0-1.1s0-.72 0-1.09h.48.49.48.48a3 3 0 0 1 .68.07 1.64 1.64 0 0 1 .56.22 1.15 1.15 0 0 1 .38.41 1.35 1.35 0 0 1 .14.64 1.27 1.27 0 0 1 -.18.69 1.63 1.63 0 0 1 -.45.49 2.29 2.29 0 0 1 -.56.29 2.7 2.7 0 0 1 -.54.14c.06.09.16.2.28.36l.39.5.46.58.46.57.41.5c.13.16.24.27.31.35h-.25-.5-.24l-.39-.53c-.17-.24-.36-.49-.57-.76l-.64-.81a7.37 7.37 0 0 0 -.6-.68h-.32v.62 1.1s0 .71 0 1.06h-.41-.42c0-.35 0-.7 0-1.06s0-.73 0-1.1zm.69.48h.26.31a2.72 2.72 0 0 0 .55-.06 1.67 1.67 0 0 0 .52-.21 1.24 1.24 0 0 0 .39-.4 1.23 1.23 0 0 0 .16-.63 1.15 1.15 0 0 0 -.13-.55 1 1 0 0 0 -.31-.34 1.25 1.25 0 0 0 -.43-.17 2.3 2.3 0 0 0 -.45-.05h-.49-.33v.93.91z"/><path d="m40.69 51.6c0-.36 0-.72 0-1.08h.76 1.51.75a2.11 2.11 0 0 0 0 .25 2.28 2.28 0 0 0 0 .26h-.49-.48-.54-.71v.51s0 .35 0 .56 0 .44 0 .64v.48h.67.54.46.39a1.18 1.18 0 0 0 0 .27 1.13 1.13 0 0 0 0 .25h-.51-.59-1v.17.22.84.8s0 .36 0 .47h1.22.59a3.14 3.14 0 0 0 .48-.06.5.5 0 0 0 0 .13v.13a.69.69 0 0 0 0 .22h-.76-1.57-.77c0-.36 0-.72 0-1.08s0-.72 0-1.09v-1.79c.07-.37.06-.7.05-1.1z"/><path d="m49.32 54.14c-.73-.79-1.46-1.57-2.2-2.35v.63s0 .63 0 1.09v.49.55s0 .38 0 .58 0 .38 0 .55 0 .32 0 .44 0 .22 0 .26h-.29-.32a1.46 1.46 0 0 0 0-.31c0-.15 0-.34 0-.55s0-.44 0-.69v-.74c0-.25 0-.49 0-.73s0-.45 0-.63v-1.4c0-.39 0-.68 0-.87h.13l1.36 1.15 1.16 1.26 1.06 1.13c.35.37.65.69.91 1v-1.16c0-.6 0-1.17 0-1.74s0-1.09 0-1.58a1 1 0 0 0 .28 0 1 1 0 0 0 .27 0v.56s0 .51-.05.79v.83.65 1.74.59.76h-.23c-.65-.75-1.34-1.52-2.08-2.3z"/><path d="m59.44 51.25a2.62 2.62 0 0 0 -.44-.25 2.35 2.35 0 0 0 -.51-.19 2.92 2.92 0 0 0 -.61-.07 3 3 0 0 0 -1 .16 2 2 0 0 0 -.79.5 2.37 2.37 0 0 0 -.53.84 3.72 3.72 0 0 0 -.19 1.22 3.5 3.5 0 0 0 .17 1.11 2.31 2.31 0 0 0 .5.85 2.44 2.44 0 0 0 .79.53 3 3 0 0 0 1.07.18 2.42 2.42 0 0 0 .37 0 2.2 2.2 0 0 0 .37-.05 2.44 2.44 0 0 0 .36-.08.85.85 0 0 0 .27-.12c0-.17 0-.34 0-.51s0-.34 0-.51 0-.4 0-.6v-.56a2 2 0 0 0 .41 0h.19a.86.86 0 0 0 .17 0v.61s0 .65 0 1.1v.35.34a4.12 4.12 0 0 1 -.45.14 4.23 4.23 0 0 1 -.56.12l-.6.08a3.74 3.74 0 0 1 -.55 0 4.81 4.81 0 0 1 -1.36-.18 2.66 2.66 0 0 1 -1-.56 2.58 2.58 0 0 1 -.66-1 3.56 3.56 0 0 1 -.22-1.31 3.21 3.21 0 0 1 .23-1.28 2.64 2.64 0 0 1 .67-1 3 3 0 0 1 1-.59 4.4 4.4 0 0 1 1.35-.2 4.45 4.45 0 0 1 .77.05 4.08 4.08 0 0 1 .59.12 3.33 3.33 0 0 1 .45.16l.35.16a1.44 1.44 0 0 0 -.12.3 1.67 1.67 0 0 0 -.07.35h-.11a2.23 2.23 0 0 0 -.31-.21z"/><path d="m64.33 51h-.46-.48-.47-.4a.93.93 0 0 0 0-.27 1 1 0 0 0 0-.26h1.09 2.18 1.1a1.12 1.12 0 0 0 0 .27 1 1 0 0 0 0 .26h-.41-.48-.48-.46v1.75 1.46 1.1s0 .71.05 1.06h-.42-.41c0-.35 0-.7 0-1.06s0-.73 0-1.1v-1.5c.08-.59.07-1.17.05-1.71z"/><path d="m73.79 51.61c0-.35 0-.72-.05-1.09h.21.41.21v1.09s0 .73 0 1.1v1.46 1.1s0 .71 0 1.06h-.42-.41c0-.35 0-.7.05-1.06s0-.73 0-1.1v-.77h-3.52v.77 1.1s0 .71 0 1.06h-.42-.41c0-.35 0-.7 0-1.06s0-.73 0-1.1v-1.46c0-.37 0-.74 0-1.1s0-.72 0-1.09h.21.41.21v1.09s0 .73 0 1.1v.29h3.54v-.3c0-.36-.01-.7-.02-1.09z"/><path d="m90.07 56.13a2.25 2.25 0 0 1 -.4.15 4.66 4.66 0 0 1 -.52.11 3.83 3.83 0 0 1 -.6 0 3.78 3.78 0 0 1 -1.23-.19 2.61 2.61 0 0 1 -1-.58 2.75 2.75 0 0 1 -.64-1 3.25 3.25 0 0 1 -.24-1.28 3.21 3.21 0 0 1 .24-1.28 2.59 2.59 0 0 1 .65-1 2.85 2.85 0 0 1 1-.59 4.06 4.06 0 0 1 1.29-.2 4.62 4.62 0 0 1 1 .11 4.78 4.78 0 0 1 .81.28 1.3 1.3 0 0 0 -.11.32c0 .13 0 .25-.06.34a1.79 1.79 0 0 0 -.24-.23 2.07 2.07 0 0 0 -.36-.25 2.34 2.34 0 0 0 -.45-.2 2 2 0 0 0 -.56-.08 2.79 2.79 0 0 0 -.93.16 1.94 1.94 0 0 0 -.74.5 2.32 2.32 0 0 0 -.5.84 3.73 3.73 0 0 0 -.18 1.22 3.63 3.63 0 0 0 .18 1.21 2.45 2.45 0 0 0 .5.85 1.92 1.92 0 0 0 .74.49 2.56 2.56 0 0 0 .93.16 2 2 0 0 0 .56-.07 2.87 2.87 0 0 0 .47-.18 2.36 2.36 0 0 0 .39-.23 3.06 3.06 0 0 0 .29-.22l-.08.49a.83.83 0 0 1 -.21.35z"/><path d="m92.8 53.44a3.4 3.4 0 0 1 .2-1.28 2.72 2.72 0 0 1 .65-1 2.89 2.89 0 0 1 1-.59 4 4 0 0 1 1.27-.2 4.06 4.06 0 0 1 1.29.2 2.85 2.85 0 0 1 1 .59 2.59 2.59 0 0 1 .65 1 3.21 3.21 0 0 1 .24 1.28 3.25 3.25 0 0 1 -.24 1.28 2.64 2.64 0 0 1 -.65 1 2.69 2.69 0 0 1 -1 .58 4.06 4.06 0 0 1 -1.29.19 4 4 0 0 1 -1.27-.19 2.73 2.73 0 0 1 -1-.58 2.77 2.77 0 0 1 -.65-1 3.44 3.44 0 0 1 -.2-1.28zm5.51 0a3.73 3.73 0 0 0 -.18-1.22 2.19 2.19 0 0 0 -.5-.84 1.94 1.94 0 0 0 -.74-.5 2.75 2.75 0 0 0 -.93-.16 2.72 2.72 0 0 0 -.91.16 1.9 1.9 0 0 0 -.75.5 2.17 2.17 0 0 0 -.49.84 3.73 3.73 0 0 0 -.18 1.22 3.63 3.63 0 0 0 .18 1.21 2.29 2.29 0 0 0 .49.85 1.88 1.88 0 0 0 .75.49 2.49 2.49 0 0 0 .91.16 2.52 2.52 0 0 0 .93-.16 1.92 1.92 0 0 0 .74-.49 2.31 2.31 0 0 0 .5-.85 3.63 3.63 0 0 0 .18-1.21z"/><path d="m104.7 54.14c-.73-.79-1.46-1.57-2.2-2.35v.63s0 .63 0 1.09v.49.55s0 .38 0 .58 0 .38 0 .55 0 .32 0 .44 0 .22 0 .26h-.29-.31c0-.06 0-.16 0-.31s0-.34 0-.55 0-.44 0-.69v-.74c0-.25 0-.49 0-.73s0-.45 0-.63v-1.4c0-.39 0-.68 0-.87h.13l1.11 1.2 1.16 1.26 1.3 1.08c.35.37.65.69.91 1v-1.16c0-.6 0-1.17 0-1.74s0-1.09 0-1.58a1 1 0 0 0 .28 0 1 1 0 0 0 .27 0v.56s0 .51 0 .79v.83.65 1.74.59.76h-.11c-.82-.75-1.51-1.52-2.25-2.3z"/><path d="m110.29 52.71c0-.37 0-.74 0-1.1s0-.72 0-1.09h.64.64.64.63a3.75 3.75 0 0 1 1.28.19 2.18 2.18 0 0 1 .86.56 2.07 2.07 0 0 1 .5.88 4.19 4.19 0 0 1 .16 1.17 3.12 3.12 0 0 1 -.3 1.43 2.75 2.75 0 0 1 -.74.93 2.69 2.69 0 0 1 -1 .5 3.9 3.9 0 0 1 -1 .15h-1.7-.57c0-.35 0-.7 0-1.06s0-.73 0-1.1zm.69 1.46v1.79a2.59 2.59 0 0 0 .48.06h.63a3.69 3.69 0 0 0 .93-.11 2 2 0 0 0 .83-.41 2.1 2.1 0 0 0 .6-.83 3.37 3.37 0 0 0 .24-1.37 3.47 3.47 0 0 0 -.18-1.21 1.71 1.71 0 0 0 -1.21-1.09 4.17 4.17 0 0 0 -1-.11c-.25 0-.49 0-.71 0l-.59.11v.85s0 .6 0 .9z"/><path d="m118.54 51.61c0-.35 0-.72-.05-1.09h.21.41.21v1.09s0 .73 0 1.1v1.46 1.1s0 .71 0 1.06h-.41-.42c0-.35 0-.7.05-1.06s0-.73 0-1.1v-1.46c.02-.37.01-.71 0-1.1z"/><path d="m123.76 51h-.47-.48-.46-.4a1.47 1.47 0 0 0 0-.27 1.86 1.86 0 0 0 0-.26h1.09 2.18 1.09a1 1 0 0 0 0 .27.92.92 0 0 0 0 .26h-.4-.47-.44-.46v1.75 1.46 1.1s0 .71 0 1.06h-.41-.42c0-.35 0-.7.05-1.06s0-.73 0-1.1v-1.5c.02-.59.01-1.17 0-1.71z"/><path d="m129 51.61c0-.35 0-.72 0-1.09h.21.41.21v1.09s0 .73 0 1.1v1.46 1.1s0 .71 0 1.06h-.41-.42c0-.35 0-.7 0-1.06s0-.73 0-1.1v-1.46c0-.37 0-.71 0-1.1z"/><path d="m132.57 53.44a3.4 3.4 0 0 1 .23-1.28 2.86 2.86 0 0 1 .65-1 2.89 2.89 0 0 1 1-.59 4 4 0 0 1 1.27-.2 4.06 4.06 0 0 1 1.29.2 2.85 2.85 0 0 1 1 .59 2.59 2.59 0 0 1 .65 1 3.21 3.21 0 0 1 .24 1.28 3.25 3.25 0 0 1 -.24 1.28 2.64 2.64 0 0 1 -.65 1 2.69 2.69 0 0 1 -1 .58 4.06 4.06 0 0 1 -1.29.19 4 4 0 0 1 -1.27-.19 2.73 2.73 0 0 1 -1-.58 2.92 2.92 0 0 1 -.65-1 3.44 3.44 0 0 1 -.23-1.28zm5.51 0a3.73 3.73 0 0 0 -.18-1.22 2.3 2.3 0 0 0 -.49-.84 2 2 0 0 0 -.75-.5 2.75 2.75 0 0 0 -.93-.16 2.72 2.72 0 0 0 -.91.16 1.9 1.9 0 0 0 -.75.5 2.3 2.3 0 0 0 -.49.84 3.73 3.73 0 0 0 -.18 1.22 3.63 3.63 0 0 0 .18 1.21 2.44 2.44 0 0 0 .49.85 1.88 1.88 0 0 0 .75.49 2.49 2.49 0 0 0 .91.16 2.52 2.52 0 0 0 .93-.16 2 2 0 0 0 .75-.49 2.44 2.44 0 0 0 .49-.85 3.63 3.63 0 0 0 .18-1.21z"/><path d="m144.47 54.14c-.73-.79-1.46-1.57-2.2-2.35v.63s0 .63 0 1.09v.49.55s0 .38 0 .58 0 .38 0 .55 0 .32 0 .44a1.26 1.26 0 0 0 0 .26h-.3-.31c0-.06 0-.16 0-.31s0-.34 0-.55 0-.44 0-.69 0-.49 0-.74v-.73-2c0-.39 0-.68 0-.87h.34l1.11 1.2 1.17 1.26 1.1 1.17c.34.37.65.69.9 1v-1.28c0-.6 0-1.17 0-1.74s0-1.09-.05-1.58a1.11 1.11 0 0 0 .29 0 1.16 1.16 0 0 0 .27 0 5.3 5.3 0 0 0 0 .56v.79s0 .56 0 .83 0 .49 0 .65v1.11.63s0 .41 0 .59 0 .35 0 .48v.28h-.12c-.77-.75-1.46-1.52-2.2-2.3z"/><path d="m150 51.61c0-.35 0-.72 0-1.09h.21.41.21v1.09s0 .73 0 1.1v1.46 1.1s0 .71 0 1.06h-.42-.41c0-.35 0-.7 0-1.06s0-.73 0-1.1v-1.46c.06-.37.05-.71 0-1.1z"/><path d="m156.79 54.14c-.73-.79-1.46-1.57-2.2-2.35v.63s0 .63 0 1.09v.49.55s0 .38 0 .58 0 .38 0 .55 0 .32 0 .44 0 .22 0 .26h-.29-.32a1.46 1.46 0 0 0 0-.31c0-.15 0-.34 0-.55s0-.44 0-.69v-.74c0-.25 0-.49 0-.73s0-.45 0-.63v-1.4c0-.39 0-.68 0-.87h.13l1.11 1.2 1.16 1.26 1.1 1.17c.35.37.65.69.91 1v-1.25c0-.6 0-1.17 0-1.74s0-1.09-.05-1.58a1 1 0 0 0 .28 0 1 1 0 0 0 .27 0v.56s0 .51-.05.79 0 .56 0 .83 0 .49 0 .65v1.11.63s0 .41 0 .59v.76h-.11c-.51-.75-1.2-1.52-1.94-2.3z"/><path d="m166.91 51.25a2.62 2.62 0 0 0 -.43-.27 2.35 2.35 0 0 0 -.51-.19 2.92 2.92 0 0 0 -.61-.07 3 3 0 0 0 -1 .16 2 2 0 0 0 -.79.5 2.37 2.37 0 0 0 -.53.84 3.72 3.72 0 0 0 -.19 1.22 3.5 3.5 0 0 0 .17 1.11 2.31 2.31 0 0 0 .5.85 2.34 2.34 0 0 0 .79.53 3 3 0 0 0 1.07.18 2.42 2.42 0 0 0 .37 0 2.2 2.2 0 0 0 .37-.05l.34-.08a.85.85 0 0 0 .27-.12c0-.17 0-.34 0-.51s0-.34 0-.51 0-.4 0-.6v-.56a2 2 0 0 0 .41 0h.19a.86.86 0 0 0 .17 0v.61s0 .65 0 1.1v.35.34a4.12 4.12 0 0 1 -.45.14 4.23 4.23 0 0 1 -.56.12l-.6.08a3.74 3.74 0 0 1 -.55 0 4.81 4.81 0 0 1 -1.36-.18 2.78 2.78 0 0 1 -1-.56 2.68 2.68 0 0 1 -.65-1 3.56 3.56 0 0 1 -.23-1.31 3.21 3.21 0 0 1 .24-1.28 2.64 2.64 0 0 1 .67-1 3 3 0 0 1 1-.59 4.51 4.51 0 0 1 1.36-.2 4.45 4.45 0 0 1 .77.05 4.08 4.08 0 0 1 .59.12 3.33 3.33 0 0 1 .45.16l.35.16a1 1 0 0 0 -.12.3 1.67 1.67 0 0 0 -.07.35h-.11a2.23 2.23 0 0 0 -.32-.19z"/><path d="m178.72 51.61c0-.35 0-.72-.05-1.09h.76 1.57.85a1.06 1.06 0 0 0 0 .25 1.14 1.14 0 0 0 0 .26l-.55-.05c-.21 0-.43 0-.65 0h-.65-.51v.56s0 .36 0 .54 0 .38 0 .55v.52h1.11s.72 0 1.07-.06a1.06 1.06 0 0 0 0 .5c-.14 0-.3 0-.47 0h-.56-1.15v.72 1.1s0 .71.05 1.06h-.41-.42c0-.35 0-.7.05-1.06s0-.73 0-1.1v-1.6c-.02-.37-.03-.71-.04-1.1z"/><path d="m184.64 51.61c0-.35 0-.72 0-1.09h.21.41.21v1.09s0 .73 0 1.1v1.46 1.1s0 .71 0 1.06h-.41-.42c0-.35 0-.7 0-1.06s0-.73 0-1.1v-1.46c.02-.37.01-.71 0-1.1z"/><path d="m189.85 51h-.46-.48-.46-.41a1 1 0 0 0 .05-.27 1.14 1.14 0 0 0 -.05-.26h1.1 2.18 1.09a1 1 0 0 0 0 .27.92.92 0 0 0 0 .26h-.4-.47-.48-.46v1.75 1.46 1.1s0 .71 0 1.06h-.41-.42c0-.35 0-.7.05-1.06s0-.73 0-1.1v-1.5c.06-.59.05-1.17.03-1.71z"/><path d="m197.79 54.14c-.73-.79-1.47-1.57-2.2-2.35v.63 1.58.55s0 .38 0 .58 0 .38 0 .55 0 .32 0 .44 0 .22 0 .26h-.29-.32a2.7 2.7 0 0 0 0-.31c0-.15 0-.34 0-.55s0-.44 0-.69v-.74c0-.25 0-.49 0-.73s0-.45 0-.63v-1.4c0-.39 0-.68 0-.87h.13l1.1 1.2q.6.63 1.17 1.26l1.1 1.17c.35.37.65.69.91 1v-1.25c0-.6 0-1.17 0-1.74s0-1.09-.06-1.58a1.17 1.17 0 0 0 .29 0 1 1 0 0 0 .27 0v.56s0 .51 0 .79 0 .56 0 .83 0 .49 0 .65v1.11.63s0 .41 0 .59v.76h-.12c-.55-.75-1.25-1.52-1.98-2.3z"/><path d="m203.35 51.6c0-.36 0-.72 0-1.08h.75 1.51.76a1.07 1.07 0 0 0 0 .25 1.15 1.15 0 0 0 0 .26h-.5-.47-.55-.71v.51s0 .35 0 .56v.64.48h.66.55.45.39a1.7 1.7 0 0 0 0 .52h-.51-.58-1s0 .11 0 .17v1.86.47h1.23.58a3.14 3.14 0 0 0 .48-.06.51.51 0 0 0 0 .13.62.62 0 0 0 0 .13.69.69 0 0 0 0 .22h-.76-1.53-.77c0-.36 0-.72 0-1.08s0-.72 0-1.09v-1.79c.04-.37.04-.7.02-1.1z"/><path d="m209.29 55.54a1.48 1.48 0 0 0 .28.28 1.22 1.22 0 0 0 .43.18 1.48 1.48 0 0 0 .49.08 1.18 1.18 0 0 0 .5-.1 1 1 0 0 0 .38-.26 1 1 0 0 0 .24-.39 1.28 1.28 0 0 0 .09-.48.9.9 0 0 0 -.2-.61 1.47 1.47 0 0 0 -.5-.38 3.74 3.74 0 0 0 -.64-.28 3.39 3.39 0 0 1 -.63-.32 1.67 1.67 0 0 1 -.5-.49 1.4 1.4 0 0 1 -.23-.77 1.54 1.54 0 0 1 .13-.65 1.39 1.39 0 0 1 .37-.5 1.72 1.72 0 0 1 .58-.33 2.24 2.24 0 0 1 .76-.12 2.11 2.11 0 0 1 .7.1 1.56 1.56 0 0 1 .55.3 2.08 2.08 0 0 0 -.13.3c0 .11-.06.24-.1.41h-.1l-.11-.26a1.21 1.21 0 0 0 -.2-.26 1.24 1.24 0 0 0 -.29-.2 1 1 0 0 0 -.41-.08 1.22 1.22 0 0 0 -.43.08 1 1 0 0 0 -.32.21 1.13 1.13 0 0 0 -.23.34 1.16 1.16 0 0 0 -.08.42 1 1 0 0 0 .2.63 1.61 1.61 0 0 0 .5.38 4 4 0 0 0 .63.28 3.14 3.14 0 0 1 .64.3 1.57 1.57 0 0 1 .5.46 1.25 1.25 0 0 1 .2.74 2 2 0 0 1 -.14.74 1.78 1.78 0 0 1 -.41.6 1.66 1.66 0 0 1 -.65.4 2.66 2.66 0 0 1 -.88.14 2.25 2.25 0 0 1 -.85-.14 2.14 2.14 0 0 1 -.54-.32 1.89 1.89 0 0 0 .1-.35c0-.1 0-.24.06-.4h.1a2.48 2.48 0 0 0 .14.32z"/><path d="m215.21 55.54a1.48 1.48 0 0 0 .28.28 1.22 1.22 0 0 0 .39.21 1.48 1.48 0 0 0 .49.08 1.15 1.15 0 0 0 .5-.1 1 1 0 0 0 .38-.26 1 1 0 0 0 .24-.39 1.28 1.28 0 0 0 .09-.48.9.9 0 0 0 -.2-.61 1.54 1.54 0 0 0 -.49-.38 4.59 4.59 0 0 0 -.64-.28 3.19 3.19 0 0 1 -.64-.32 1.67 1.67 0 0 1 -.5-.49 1.4 1.4 0 0 1 -.2-.79 1.71 1.71 0 0 1 .13-.65 1.52 1.52 0 0 1 .37-.5 1.72 1.72 0 0 1 .58-.33 2.24 2.24 0 0 1 .76-.12 2.11 2.11 0 0 1 .7.1 1.56 1.56 0 0 1 .55.3 2.08 2.08 0 0 0 -.13.3c0 .11-.06.24-.1.41h-.1l-.11-.26a1.21 1.21 0 0 0 -.2-.26 1.24 1.24 0 0 0 -.29-.2 1 1 0 0 0 -.41-.08 1.22 1.22 0 0 0 -.43.08.95.95 0 0 0 -.58.55 1.16 1.16 0 0 0 -.08.42 1 1 0 0 0 .2.63 1.61 1.61 0 0 0 .5.38 3.74 3.74 0 0 0 .64.28 3.32 3.32 0 0 1 .63.3 1.57 1.57 0 0 1 .5.46 1.25 1.25 0 0 1 .2.74 2 2 0 0 1 -.14.74 1.79 1.79 0 0 1 -1.06 1 2.65 2.65 0 0 1 -.87.14 2.07 2.07 0 0 1 -1.4-.46 2 2 0 0 0 .11-.35c0-.1 0-.24.05-.4h.1a2.48 2.48 0 0 0 .18.31z"/><path d="m79.92 53.17a.36.36 0 0 1 -.27.11.33.33 0 0 1 -.26-.11.36.36 0 0 1 0-.54.34.34 0 0 1 .26-.12.38.38 0 0 1 .27.66z"/><path d="m172.32 53.17a.39.39 0 0 1 -.54 0 .38.38 0 1 1 .54-.54.39.39 0 0 1 0 .54z"/></g></svg>