<svg viewBox="0 0 653.16 47.4" xmlns="http://www.w3.org/2000/svg"><path d="m34.2 31.1a38.85 38.85 0 0 0 -11.4-3.4l-.55-5a19.43 19.43 0 0 1 4.55 1.1c-1.1-1.45-2.9-3.85-5.2-7.45a122.75 122.75 0 0 1 -21 1.25l-.6-6.6c2.05.1 3.85.2 6.45.2a86.23 86.23 0 0 0 11.55-.7c-1.35-2.25-3.2-5.7-4-7.35l6.6-2.1a93.63 93.63 0 0 0 4.2 8.35 63 63 0 0 0 13.5-4.2l2.5 6.1a69.61 69.61 0 0 1 -12.5 3.85 94.66 94.66 0 0 0 9.2 12zm1.5 12.6a79.7 79.7 0 0 1 -13.9 1.3c-6.4 0-12.6-1-16.25-4.6a10.3 10.3 0 0 1 -3.15-7.4 9.58 9.58 0 0 1 4.9-8.4l4.45 3.9c-1.45 1-2.75 2-2.75 4.25 0 5.7 8.85 6 12.6 6a67.44 67.44 0 0 0 14.25-1.65z"/><path d="m81.42 17.75c-4 .6-9.9 1.35-15.35 1.7-.15 1.3-.15 1.5-.25 2.55a29.49 29.49 0 0 1 4.18-.3c9.45 0 14.6 4.85 14.6 11.6 0 10.6-11.35 11.75-13.6 12l-1.6-5c3.55-.2 9.6-1.55 9.6-7.15a5.86 5.86 0 0 0 -3.8-5.55 45.85 45.85 0 0 1 -4.1 7.1c-1.3 1.75-7 9.4-14.36 9.4-3.85 0-7.15-2.9-7.15-7.55 0-6.4 5.36-11.2 11-13.2.15-2.5.15-2.75.19-3.6-1.59.1-3.29.1-5 .1s-2.39-.05-4-.1l.05-5.45c2.06.15 5.11.3 9.51.25.39-2.75.45-3.15.8-5.2l5.6.6c-.35 1.6-.55 2.4-.9 4.35a109.08 109.08 0 0 0 14.16-1.95zm-26.61 18.45a2.3 2.3 0 0 0 2.4 2.55 8 8 0 0 0 3.91-1.25 53.76 53.76 0 0 1 -.7-8.7c-1.1.65-5.61 3.35-5.61 7.4zm10.86-2a31.41 31.41 0 0 0 4.65-7.7 17.11 17.11 0 0 0 -5 .45 46.3 46.3 0 0 0 .35 7.25z"/><path d="m110.51 45.45a54.23 54.23 0 0 0 -11.2-10.25l4.2-4.85a55.39 55.39 0 0 1 11.61 10.15z"/><path d="m160.87 40.6a27.15 27.15 0 0 1 -12.65 2.9c-13.91 0-21.22-9.6-21.22-20.65 0-12.8 9.42-20.85 21.22-20.85a22.44 22.44 0 0 1 12.65 3.75l-2.3 6.45a14.47 14.47 0 0 0 -10.35-3.75c-9.05 0-14.21 6.45-14.21 14.3 0 7.2 4.41 14.3 14.71 14.3a20.41 20.41 0 0 0 12.15-4z"/><path d="m168.74 42.7v-29.7h6.4v3.3a9.51 9.51 0 0 1 9.05-4.05v6c-4.65-.25-8.85 1.2-8.85 7.9v16.55z"/><path d="m204.63 12.15c7.86 0 14.71 6 14.71 15.65s-6.85 15.7-14.76 15.7-14.7-6-14.7-15.7 6.95-15.65 14.75-15.65zm0 25.3c3.3 0 8.16-2.1 8.16-9.65s-4.86-9.6-8.11-9.6-8.15 1.95-8.15 9.6 4.95 9.65 8.05 9.65z"/><path d="m244.55 20.2a12.81 12.81 0 0 0 -6.65-2c-1.65 0-4.35.55-4.35 3.05 0 2.15 1 2.5 6.75 4.3 2.9.9 7.65 2.55 7.65 8.55 0 6.7-6 9.4-12.35 9.4a20.33 20.33 0 0 1 -10.1-2.6l2.2-5.8a15.25 15.25 0 0 0 8.2 2.35c4.8 0 5.45-2.4 5.45-3.45 0-2.25-1.45-2.75-6.7-4.35-3.7-1.15-7.7-3-7.7-8.45 0-5.3 4.35-9 10.8-9a18.59 18.59 0 0 1 8.5 2.1z"/><path d="m272.84 20.2a12.81 12.81 0 0 0 -6.65-2c-1.65 0-4.35.55-4.35 3.05 0 2.15 1.05 2.5 6.75 4.3 2.9.9 7.65 2.55 7.65 8.55 0 6.7-6.05 9.4-12.35 9.4a20.33 20.33 0 0 1 -10.1-2.6l2.2-5.8a15.25 15.25 0 0 0 8.2 2.35c4.8 0 5.45-2.4 5.45-3.45 0-2.25-1.45-2.75-6.7-4.35-3.7-1.15-7.7-3-7.7-8.45 0-5.3 4.35-9 10.8-9a18.59 18.59 0 0 1 8.5 2.1z"/><path d="m308.51 19.4v6.35h-16.7v17h-7.05v-39.95h25.3v6.45h-18.25v10.15z"/><path d="m325.41 9.15h-7.3v-7.1h7.3zm-.35 33.55h-6.6v-29.7h6.6z"/><path d="m336.58 4.35h6.6v8.65h8.36v6h-8.36v14.35c0 2.55.3 4.1 3.8 4.1a36 36 0 0 0 4.1-.35v6a46.08 46.08 0 0 1 -5.6.4c-8.9 0-8.9-5.3-8.9-9.75v-14.75h-3.58v-6h3.55z"/><path d="m381.13 3.1-2.6 4.15a106.77 106.77 0 0 0 15.05-1.95l-.05 6.1c-8.2 1.15-14.6 1.65-18.75 1.85l-1.9 3a11.29 11.29 0 0 1 4.12-.85 8.47 8.47 0 0 1 8.25 5c5.35-2.3 8.4-3.5 11.5-4.65l2.35 5.85c-5.85 2.1-10.5 3.9-12.8 4.8.1 3.35-.05 7.25-.1 9.3h-6.2c.25-3.1.3-4 .4-6.65-5.05 2.4-6.9 4.3-6.9 6.4 0 2.3 2.6 3.3 9.75 3.3a76.47 76.47 0 0 0 12.8-1.2l-.7 6.45a90.44 90.44 0 0 1 -11.05.7c-5.4 0-16.85-.2-16.85-9.05 0-6.75 7.7-10.5 12.5-12.8-.5-1.1-1.2-2.25-3.9-2.25-5.3 0-8.6 4-12.6 10l-5.05-3.5a118.13 118.13 0 0 0 9.8-13.7c-3.15.05-4.7 0-7.8 0l.15-6.1c1.75.1 6.3.3 11.1.2 1.1-2.1 1.75-3.3 3.05-6z"/><path d="m412.49 24a24 24 0 0 1 -3.25 3.5l-2.1-8a34.46 34.46 0 0 0 8.4-19.5l6.1.7a44.24 44.24 0 0 1 -3.15 12.2v34.35h-6zm6.6 9.2c6.4-5.2 10.4-11 13.8-18.9h-11.75v-6.15h13.4v-8h6.31v8h14.15v6.1h-12.3c.64 1.6 5 11.6 13.1 18.4l-3.2 6.65a53.81 53.81 0 0 1 -11.7-17v11.3h6.6v5.85h-6.6v7.8h-6.31v-7.8h-6.59v-5.85h6.55v-11.85a51.57 51.57 0 0 1 -12 17.85z"/><path d="m465.66 31.8a50.79 50.79 0 0 1 -1.85 13l-3-2a35.46 35.46 0 0 0 1.9-11zm38.34-15.95h-5.65v2.75h9.45v15.4h-7.45a23.22 23.22 0 0 0 9.85 7.85l-3.15 5.6a24 24 0 0 1 -11.2-10.6 20.59 20.59 0 0 1 -11.31 10.5l-3.1-5.2c-.8 3.95-2.2 5.2-5.45 5.2h-5.2l-.9-5h4.11a2.36 2.36 0 0 0 2.25-.95c.9-1.35 1.05-4.9 1.4-12.35h-14.2v-27.35h19.15v4.65h-5.3v3.15h4.35v.55a25.47 25.47 0 0 0 10.56-9.85h7a26.37 26.37 0 0 0 11.05 9.7l-2.75 5.5a33.77 33.77 0 0 1 -3.51-2.25zm-34.84 15.85c.3 4.3.3 7.05.25 9.05l-3.05.35a47 47 0 0 0 .45-9.25zm-.45-25.35v3.15h4.2v-3.15zm0 7.25v3.15h4.2v-3.15zm0 7.5v3.25h4.2v-3.25zm3.9 10.2a44.79 44.79 0 0 1 .75 8.15l-2.5.45a38.85 38.85 0 0 0 -.55-8.3zm3.05-.45a32.64 32.64 0 0 1 1 6.8l-2.1.45a31.82 31.82 0 0 0 -.75-7zm12.15-17.55a33.27 33.27 0 0 1 -3.6 2.45l-2.55-5.05v2.9h-4.35v3.15h4.35v4.35h-4.35v3.25h5.4a116 116 0 0 1 -1.25 17.7 15.61 15.61 0 0 0 9.6-8.1h-6.9v-15.35h8.84v-2.75h-5.15zm5.19 10.35h-3.9v5.35h3.65a19.68 19.68 0 0 0 .25-3.9zm8.31-12.8a40.08 40.08 0 0 1 -5.45-6.1 38.86 38.86 0 0 1 -5.15 6.1zm-2.9 14.25a30.16 30.16 0 0 1 -.15 3.85h4.5v-5.3h-4.35z"/><path d="m528.51 2.7-1 25.5c-.15 4.05-.2 10.1 8 10.1 8.9 0 13.45-8.9 15.6-15.7l6.2 3.5c-3.7 9.6-9.25 18.8-21.8 18.8-4.9 0-12-1.5-14.3-8.7a23.21 23.21 0 0 1 -.7-7.7l1-26.25z"/><path d="m589 11.35a79.14 79.14 0 0 0 13.9-1.7l-.1 6.85c-6.2.75-8.15.9-13.75 1.25l.15 9.6a61.38 61.38 0 0 1 17.85 7.95l-3.3 6a53.32 53.32 0 0 0 -14.5-7.55c.1 3.95.25 11.1-11.2 11.1-8.4 0-13-4.2-13-9.6 0-3.8 2.6-9.2 13.65-9.2a31.67 31.67 0 0 1 3.95.25l-.5-24.6 6.7.4zm-11 20.55c-1.8 0-6.9.15-6.9 3.4 0 2.5 3.3 3.6 6.55 3.6 5 0 5.05-2.3 5.05-6.6a27.42 27.42 0 0 0 -4.7-.4z"/><path d="m622.66 38.7c11.65.15 23.55-3.5 23.55-12.65 0-6-4.65-6.6-7.65-6.6-2.4 0-9.2.7-22.1 4.75l-2.15-6.75c13.6-3.35 19.05-4.4 24.05-4.4 2.25 0 14.8 0 14.8 12.65 0 11.45-10.2 19-28.1 19.45zm21.4-26.4c-5.55-.75-13.95-2-21.45-4.6l2.45-6.05a94.57 94.57 0 0 0 20.3 4.35z"/></svg>